<?xml version="1.0" encoding="UTF-8"?>
<svg width="998px" height="620px" viewBox="0 0 998 620" version="1.1" xmlns="http://www.w3.org/2000/svg" xmlns:xlink="http://www.w3.org/1999/xlink">
    <!-- Generator: Sketch 64 (93537) - https://sketch.com -->
    <title>flowers</title>
    <desc>Created with Sketch.</desc>
    <defs>
        <polygon id="path-1" points="0.332578908 0.230624552 46.8529898 0.230624552 46.8529898 44.1151238 0.332578908 44.1151238"></polygon>
        <polygon id="path-3" points="0.233936005 0.0544319975 31.2634416 0.0544319975 31.2634416 33.2503438 0.233936005 33.2503438"></polygon>
        <polygon id="path-5" points="8.21673378e-05 0.421273878 84.4338133 0.421273878 84.4338133 85.195353 8.21673378e-05 85.195353"></polygon>
    </defs>
    <g id="flowers" stroke="none" stroke-width="1" fill="none" fill-rule="evenodd">
        <rect fill="#E8E6DE" x="0" y="0" width="998" height="620"></rect>
        <g id="Group-3" transform="translate(105.000000, 184.000000)">
            <g id="Group">
                <path d="M140.022141,99.3608573 C139.783418,99.7216285 139.49804,100.052949 139.194777,100.270557 C138.38141,100.859571 137.50117,100.660779 136.683138,101.112357 C136.097607,101.435496 135.613164,102.123498 134.98642,102.287113 C133.731378,102.620069 132.454564,102.623342 131.280392,102.41146 C130.988015,102.356649 130.684752,102.316564 130.407927,102.221667 C129.860499,102.038418 129.576676,101.494398 129.355838,100.980646 C129.101564,100.385906 128.449937,100.106942 128.103907,99.5694665 C127.793645,99.0851659 127.389295,98.3955284 127.288985,97.7950611 C127.208892,97.3033978 127.27421,96.7544693 127.343416,96.2546253 C127.572808,94.623383 128.082911,92.0955302 129.799846,91.1801039 C130.274181,90.9281367 130.710413,90.5559125 131.037004,90.0879734 C131.733731,89.0891034 132.828588,89.0105681 133.801362,88.7847794 C134.228263,88.6866103 134.655942,88.5753521 135.082843,88.4861819 C135.904763,88.3152041 136.74379,88.2072182 137.494172,88.4125551 C138.519045,88.6923368 139.05481,89.323891 139.53692,90.257315 C139.749204,90.6712611 139.921053,90.9984912 140.265529,91.3052695 C140.613892,91.6120477 141.001136,91.8795584 141.226639,92.3049575 C141.601441,93.0134108 141.505019,93.8936598 141.473137,94.7518209 C141.448254,95.3866473 141.279516,96.0411076 141.130217,96.6816606 C140.918711,97.6011773 140.569569,98.532147 140.022141,99.3608573" id="Fill-76" fill="#5D8AB4"></path>
                <path d="M84.7129857,42.5900286 C84.2297004,42.4240882 83.7736973,42.1776421 83.450208,41.8457613 C82.5795149,40.9577338 82.6434333,39.585029 81.9379926,38.6222462 C81.4328815,37.9346615 80.506065,37.5764932 80.1825756,36.7508987 C79.5355969,35.0947808 79.2768054,33.244792 79.3017491,31.4375205 C79.3111031,30.9824167 79.2978517,30.5240269 79.3563136,30.0746735 C79.4701195,29.1915749 80.0703287,28.5056332 80.6479326,27.9289493 C81.3167371,27.2610804 81.5233026,26.177539 82.1024655,25.4086271 C82.6255049,24.715292 83.3800536,23.7812613 84.0862738,23.3368368 C84.6592007,22.974561 85.3358002,22.7946553 85.9539377,22.6467877 C87.9673667,22.1621103 91.1172957,21.6363586 92.5640336,23.669539 C92.9631338,24.2306147 93.4970861,24.6766821 94.1292545,24.9165564 C95.47232,25.4283428 95.780999,26.9776673 96.2455765,28.2731524 C96.450583,28.8449074 96.6672819,29.4084475 96.860596,29.982667 C97.2300754,31.0883885 97.5231646,32.2540786 97.4249485,33.4452348 C97.2885374,35.0726007 96.6329842,36.1659999 95.6040542,37.33169 C95.1464921,37.8467624 94.7840281,38.2599704 94.4854825,38.9138741 C94.1830395,39.5677778 93.9351609,40.2643988 93.4651269,40.8082232 C92.6879729,41.7061085 91.6044784,42.0059513 90.562297,42.3895858 C89.7937175,42.6705343 88.9674555,42.7510401 88.1661373,42.8570119 C87.0148269,43.0098085 85.822983,42.9703771 84.7129857,42.5900286" id="Fill-78" fill="#5D8AB4"></path>
                <path d="M142.980988,3.05268154 C143.594762,3.53849439 144.130216,4.12484798 144.436304,4.75061354 C145.257067,6.43808931 144.505034,8.29447352 145.056471,9.9948185 C145.447273,11.2093506 146.603694,12.1986715 146.672424,13.5048968 C146.801892,16.1278036 146.28402,18.8134478 145.376945,21.2859457 C145.149177,21.906081 144.945385,22.5423028 144.644092,23.130265 C144.054293,24.2884943 142.864307,24.9110426 141.756636,25.3944425 C140.47714,25.955862 139.656377,27.3352809 138.452805,28.085717 C137.369909,28.7589378 135.83867,29.6428919 134.611921,29.8793638 C133.614538,30.0691847 132.558015,29.9557747 131.596595,29.8311042 C128.47338,29.420898 123.700646,28.4613372 122.604963,24.8925431 C122.302871,23.9080482 121.747437,23.0080075 120.961838,22.3412213 C119.278754,20.9207817 119.578449,18.6244312 119.535293,16.5910953 C119.519309,15.6999022 119.474555,14.8046875 119.476111,13.9134944 C119.478551,12.1930412 119.620006,10.4315675 120.333679,8.84704542 C121.309484,6.68180006 122.779985,5.52759237 124.816308,4.4731211 C125.721785,4.00661207 126.441052,3.63340485 127.185892,2.89422933 C127.934729,2.15505382 128.623626,1.32659812 129.56187,0.830329034 C131.112289,0.0107209272 132.80816,0.177216391 134.488846,0.204563473 C135.729182,0.22869325 136.953533,0.556858223 138.154708,0.840785271 C139.878551,1.24777418 141.571225,1.93788582 142.980988,3.05268154" id="Fill-80" fill="#5D8AB4"></path>
                <path d="M46.204456,103.438856 C43.2099171,97.6818322 40.2137577,91.9215858 37.0774319,86.2419024 C34.2700516,81.1519393 29.2516062,77.7731318 26.6200417,72.2054308 C26.1817176,71.2717069 25.8503414,69.984312 26.6500195,69.3381977 C26.9408851,69.1037597 27.3224944,69.0207799 27.6878994,68.955524 C29.9184096,68.5510983 32.1959121,68.4350877 34.4499184,68.6123261 C37.8933141,68.877378 36.7695518,73.4525443 37.7831254,75.8790984 C39.7519376,80.5855822 41.9978418,85.1808892 44.5613486,89.6013747 C46.9676745,93.7487521 50.7780957,101.705143 50.7780957,101.705143 C50.7780957,101.705143 49.9524909,98.4971286 49.7304932,93.948548 C48.9729461,78.4675839 56.8968073,75.1580606 57.9930225,75.7026657 C58.7991822,76.1030632 57.6713688,77.5451389 60.4447202,88.8183035 C61.2516901,92.0956017 61.2314349,95.3438972 60.9251752,97.7825358 C60.4803695,101.347443 58.2198815,105.854131 54.4831895,106.906283 C53.9525014,107.052101 61.0078167,121.17397 61.501235,122.200341 C61.9193038,123.078476 63.0365844,126.483064 64.0031658,126.898768 C64.2211125,126.993833 64.4309571,126.74731 64.5508683,126.532207 C65.7864397,124.323978 66.456484,121.811222 67.4959844,119.482149 C68.6481041,116.908165 69.7929319,114.330153 70.9442414,111.753751 C76.4091129,99.4944971 82.0603329,87.2779411 87.2148937,74.8849524 C88.8847381,70.86567 89.9096547,66.6087271 90.6015747,62.3163366 C90.9961473,59.8793093 92.5938829,49.9394604 91.8452482,47.4138139 C90.9386223,44.3677312 86.2053711,44.4064014 83.8039065,43.5169872 C82.5626636,43.0553618 80.4755607,42.3157945 79.7795896,41.0404841 C79.1905664,39.9544963 80.1466151,39.7796749 81.0216427,39.9536907 C82.2418201,40.196185 83.2359487,40.3935641 84.5776577,40.3371701 C87.5373576,40.2171314 90.6023849,39.9561076 93.366824,41.021149 C93.2274677,40.9647549 95.6637715,34.6373459 95.931141,34.0782395 C96.8142707,32.2325437 98.3877,29.6319738 99.3267343,29.0486985 C100.266579,28.4662288 100.047012,31.6992174 100.218776,32.8963819 C100.475613,34.6768217 100.109398,36.5055992 99.4555578,38.1813072 C98.5124725,40.5861094 96.4018735,42.5929309 96.1450367,45.1685263 C95.9222287,47.4258984 95.7796316,49.6824648 95.5754585,51.9398369 C95.1565795,56.5850929 94.6680224,61.2214869 94.1754143,65.8554641 C94.1543488,66.064122 93.6852368,69.2673023 93.8723955,69.16821 C98.1689431,66.8165794 101.652849,63.3233726 105.220207,60.0146549 C108.747055,56.7421905 112.222049,53.2973215 114.633236,49.0685756 C116.374379,46.0176591 118.122814,42.6058209 119.525288,39.3905561 C120.849983,36.3589748 121.789827,32.709476 121.076032,29.4096202 C120.290938,25.7714003 118.334279,22.4924909 117.272092,18.9412789 C116.008163,14.6996429 115.906077,11.1822673 116.484567,6.86087413 C116.568019,6.22201044 117.012015,3.50542994 117.966443,4.16201745 C118.595977,4.59544578 118.41854,7.35633588 121.296409,12.2142779 C122.64379,14.4877625 123.576342,16.9360686 124.399516,19.4528532 C124.850804,20.8304785 125.285077,22.2097151 125.562979,23.6380951 C125.676408,24.2318436 126.371569,27.0322095 125.923523,27.4777222 C129.071191,24.3422147 133.923544,23.36257 138.275186,23.987738 C143.05786,24.6741338 149.857959,24.0908585 151.411943,24.2407055 C153.064773,24.4018312 150.059701,27.4237451 146.247659,29.1397346 C144.072244,30.1193793 141.255951,31.0184611 138.963865,31.5123115 C135.670358,32.2212649 132.605331,31.9288217 129.310204,32.6377751 C128.91158,32.7239774 128.504044,32.8134022 128.149172,33.0204488 C127.740015,33.2589149 127.431325,33.6367548 127.133978,34.0081498 C124.099738,37.8179686 122.526309,42.5502325 120.181559,46.8136204 C116.606099,53.3166566 112.49671,59.6658176 107.296777,64.9604105 C95.523605,76.9465566 92.5412192,77.3872356 89.6293218,81.8198056 C85.6082458,87.9450018 82.9329299,95.3745111 80.0088793,102.065259 C77.7257054,107.29379 75.4951952,112.552935 73.47615,117.889421 C70.2741971,126.339662 66.544797,133.828788 69.3570385,143.070156 C71.085218,148.751451 73.6600678,154.081492 75.8913882,159.571852 C76.8369042,161.896092 79.6799337,171.222051 82.2790898,169.713914 C83.7812206,168.842224 86.420077,157.194442 88.8199212,150.696239 C90.7935946,145.350892 93.0281559,140.372911 95.8954917,135.440851 C98.6404858,130.71906 101.544281,125.958599 104.828876,121.484137 C106.371517,119.383862 114.542492,110.202916 116.717098,107.694993 C118.796099,105.299053 121.025799,102.93856 123.002713,100.462057 C124.908329,98.0790072 125.578373,95.2907257 126.502013,92.4130194 C126.978417,90.9346905 128.399527,87.130511 129.67885,87.1442067 C130.905509,87.1579024 127.586075,98.5793027 129.349094,98.8314645 C132.132978,99.2310565 135.14048,100.285625 137.994043,100.165586 C138.942799,100.125304 142.935518,99.0465674 142.816417,100.714219 C142.732155,101.876742 136.784398,103.492833 135.903699,103.73855 C132.244787,104.762504 126.859316,103.673294 123.937696,106.579197 C120.998252,109.501213 118.311593,113.236109 115.590095,116.444928 C112.153991,120.492408 108.547743,124.406958 105.471373,128.755743 C99.2797421,137.507289 95.3664241,148.007856 92.4423735,158.226452 C91.2683781,162.341604 90.2855925,166.509928 89.2971354,170.671807 C88.6392442,173.441559 88.4310201,176.507782 88.1814752,179.326677 C87.8752155,182.753017 87.5478903,186.260725 87.9173464,189.692704 C89.6665915,205.80367 90.1535281,248.172497 89.5523517,251.59642 C89.4632286,251.473159 79.7431302,251.59642 79.7431302,251.59642 C79.7431302,251.59642 81.7005993,216.62246 81.7475916,214.217658 C81.85697,208.477552 81.4567259,202.881654 80.5525307,197.128658 C78.0951615,181.498653 72.5006562,167.162487 66.9239756,152.515349 C64.2616231,145.524102 61.781568,138.460348 59.1581055,131.451377 C57.2889493,126.460506 55.2164302,121.537308 52.6885727,116.851771 C50.3373411,112.489291 48.5005933,107.852091 46.204456,103.438856" id="Fill-82" fill="#4B7830"></path>
                <path d="M25.9607348,103.869671 C23.2811379,103.553016 26.2558236,107.688714 27.198204,108.773815 C32.4645875,114.833427 35.5844379,118.262249 44.4188577,118.103123 C49.8343721,118.005567 58.3213487,116.626202 52.9764334,112.43453 C42.0525944,103.869671 34.7166229,104.903595 25.9607348,103.869671" id="Fill-84" fill="#4B7830"></path>
                <path d="M37.4419568,144.039676 C34.7212673,144.120333 38.8018992,149.872177 40.5577539,154.800351 C42.1454263,159.256808 45.4712499,165.240844 48.4043801,168.911107 C53.5777941,175.379081 60.2495589,178.112429 67.9038619,180.900362 C70.8514767,181.974149 77.0444452,184.817482 78.8743322,180.913398 C80.4941926,177.462291 77.095946,175.56402 75.3087081,173.18344 C58.5669319,150.892192 48.774542,143.702387 37.4419568,144.039676" id="Fill-86" fill="#4B7830"></path>
                <path d="M104.599221,106.4346 C104.066036,103.957467 103.246227,101.571928 102.575123,99.1389567 C99.9662179,89.6818529 101.652067,86.7287569 100.476287,85.7956407 C99.3875741,84.9312202 94.0025655,90.3761698 92.5509478,107.348089 C92.0023534,113.763774 92.0886492,120.482047 94.0588119,126.515816 C96.373387,133.619276 100.596485,131.499524 102.595156,126.363705 C104.943633,120.329117 105.981494,112.857645 104.599221,106.4346" id="Fill-88" fill="#4B7830"></path>
                <path d="M3.38088115,75.9296828 C4.10858102,77.1613268 5.30140041,78.1766549 6.4061593,79.0594795 C7.4484753,79.8936131 8.68052163,80.5138253 10.01744,80.6926252 C10.73073,80.7860162 11.4616321,80.7540877 12.1613127,80.5752878 C12.7305037,80.4340039 13.2148364,80.105938 13.7071746,79.8034149 C13.9761594,79.6381846 14.7655016,78.994026 15.0969293,79.2287009 C15.3218838,79.3851508 15.3907311,80.0093541 15.4683844,80.2528094 C15.7293637,81.0709786 16.0231655,81.8827622 16.3858146,82.6634154 C16.8797539,83.729031 17.8011869,84.8281715 18.7778578,85.5010659 C19.8449908,86.2370191 21.1138625,86.7167457 22.2554467,87.2715043 C23.4242495,87.8422273 24.5530249,88.1407593 25.8523175,88.2525092 C29.8158401,88.5973377 33.4871621,87.031242 36.8911003,85.1570357 C38.6178865,84.2071611 40.2205875,82.4758351 41.0515583,80.6830467 C41.4446283,79.8369399 41.5262844,78.9788599 41.3925925,77.9483658 C41.3237453,77.4151589 41.2725101,76.7542377 41.0955885,76.2601433 C40.8602268,75.598424 41.480653,75.7844078 41.9465731,75.8450721 C43.1289853,75.990347 44.2753728,76.0310559 45.4409735,75.8275114 C46.8835645,75.5784686 48.4046093,75.1107153 49.5886227,74.2238996 C52.3233012,72.1756827 52.9509323,68.9668627 53.9708329,66.0453998 C54.3623018,64.9223128 54.7593746,63.7593151 54.660907,62.5739675 C54.4503623,60.0492168 52.6435212,57.6920911 50.8991229,55.9799223 C49.9608784,55.0587834 48.8537178,54.0785767 47.6416852,53.534993 C46.8035095,53.1614289 45.8700683,53.3306503 45.0086765,53.1406754 C44.7452956,53.083204 44.3346135,52.9754451 44.4643026,52.5994863 C44.5147372,52.4534132 44.6412241,52.3464525 44.7597055,52.2450794 C45.5746653,51.5546243 46.2911575,50.6247051 46.5345247,49.5654752 C46.8555452,48.1701973 46.8483403,46.6911069 46.6313912,45.2814611 C45.9621315,40.9224149 42.5581932,38.8215159 39.1414462,36.7349847 C38.1463626,36.1283421 37.1232598,35.5065335 35.9808751,35.273455 C33.7153188,34.8104909 31.6466978,35.9247976 29.5916861,36.6870919 C28.3180112,37.1580381 26.975489,37.4845076 25.7850713,38.154209 C25.2054731,38.482275 24.666703,38.8949516 24.2672286,39.4329477 C24.0774983,39.6891744 23.8749592,39.997285 23.7868987,40.306992 C23.6548079,40.7779382 23.6532068,40.9423703 23.2425247,40.5624204 C22.8870805,40.2407402 22.509221,39.9406118 22.1457713,39.6285101 C21.5229435,39.0968997 20.9201294,38.5165982 20.2620774,38.0304859 C19.2838053,37.3104969 17.7963836,36.5960955 16.5723428,36.5194669 C14.0362006,36.3614206 12.1012714,37.8277395 10.0990961,39.1208461 C7.33079446,40.9104417 5.16930967,42.0463001 4.34794545,45.318179 C3.29442175,49.5223717 2.32255415,53.6962323 6.21402732,56.9106397 C6.4045582,57.0662914 6.62310833,57.2554681 6.61029953,57.5021162 C6.60309458,57.717634 6.41816755,57.8812678 6.25085262,58.0185606 C4.94835789,59.0650191 3.62104612,60.1003025 2.49227073,61.3415252 C1.91987754,61.971316 1.38911294,62.6585781 1.01045283,63.4216707 C-0.26882595,66.0246462 0.215506753,68.9197681 1.2794376,71.5131651 C1.60766307,72.3137737 2.12401777,73.0321662 2.41621849,73.8391605 C2.65798457,74.5096602 2.97820453,75.2456134 3.38088115,75.9296828" id="Fill-90" fill="#5D8AB4"></path>
                <path d="M38.9990496,63.0141079 C38.6982194,64.8455735 37.6641655,66.0142 37.2807073,66.431394 C36.7223663,67.0434933 36.0982438,67.6056582 35.3016453,67.8343901 C34.6277856,68.0292954 33.6603155,67.8295577 33.1236344,68.3570907 C32.9407296,68.5342773 32.8388484,68.7783116 32.7433849,69.0150974 C31.7534529,71.4554408 30.7595097,73.0638123 28.13627,73.8313526 C27.6437106,73.9553833 26.4363785,74.2469358 25.0204708,73.8208825 C24.0738583,73.5349677 23.4032074,73.0396505 23.0662776,72.7577626 C22.1902599,72.022438 21.8116149,70.8699195 20.8593869,70.2103019 C20.5264681,69.9791539 20.0972836,69.9598244 19.6937699,69.9453273 C18.0540445,69.8881444 16.8443059,70.0814389 15.4925753,69.0287891 C15.0730174,68.7017992 13.444523,67.3366567 13.227123,65.2410219 C13.0281739,63.3008281 14.1625045,61.7939362 14.9719384,60.1879809 C15.7749546,58.5965227 14.6831414,56.95513 14.6614816,55.3217913 C14.6414262,53.6578476 15.5391037,51.9737691 16.8210416,50.9356164 C17.871942,50.0794828 19.4474902,49.5398689 20.7976164,49.6494025 C21.6607986,49.7186663 22.3234274,50.4330507 23.1649499,50.5756054 C24.9651181,50.8800443 25.7031549,48.8496464 27.1423268,48.3164757 C28.6881932,47.7422298 30.6889149,48.5444021 31.8785982,49.5519498 C33.4549487,50.885682 34.7112158,52.3869361 34.4537052,54.5494186 C34.3815059,55.1558802 34.1857657,55.8992587 34.6911605,56.386522 C35.2615346,56.9341898 36.1913007,57.2917846 36.8507206,57.76294 C37.6753965,58.3565153 38.3163655,59.0765374 38.7479566,60.0075727 C39.3271551,61.2543224 39.0880954,62.4672455 38.9990496,63.0141079" id="Fill-92" fill="#E8E6DE"></path>
                <path d="M30.5148589,67.0496107 C31.0597234,66.1375428 31.5525109,65.0457123 31.2618129,64.008556 C31.1498864,63.6059539 30.9237016,63.2555409 30.6788624,62.9308083 C29.971549,61.9980304 29.1958362,60.9492766 28.2359109,60.2890421 C27.6762784,59.9021796 26.9845104,59.6801685 26.3339376,59.8417064 C25.361576,60.0852559 24.7459802,61.0843057 24.2741789,62.0237108 C23.887877,62.7957791 23.518675,63.6324627 23.5785246,64.5047674 C23.6096153,64.9537599 23.7534098,65.3861845 23.9399539,65.7887866 C25.3133854,68.7967053 28.5942312,70.2629725 30.5148589,67.0496107" id="Fill-94" fill="#CA4F6D"></path>
                <path d="M20.7702591,63.6529065 C20.7890911,63.6579237 20.8064165,63.6595961 20.8237419,63.6612686 C21.7005579,63.7925523 22.5592952,63.0474962 23.0767974,62.3417417 C23.286962,62.057433 23.4594628,61.743021 23.5257513,61.378437 C23.6907192,60.4686491 23.3939276,59.3213799 22.9758581,58.5412034 C22.5977124,57.8312678 21.9453733,57.260978 21.205654,57.2016077 C20.7295821,57.1639786 20.2520036,57.3345638 19.8452333,57.6105105 C19.7992834,57.6447948 19.7503203,57.6782429 19.703617,57.7133634 C18.3552488,58.7226592 17.9695703,60.650105 18.8930895,62.1602859 C19.2923271,62.8141959 20.0350595,63.5166056 20.7702591,63.6529065" id="Fill-96" fill="#CA4F6D"></path>
                <path d="M29.4678937,57.8090134 C29.2115769,57.4737248 28.8827897,57.2064542 28.5471368,56.9591889 C27.9643213,56.5254743 27.3372606,56.1293697 26.6392552,55.9701276 C25.9420125,55.8092852 25.1578053,55.9165135 24.613895,56.3998411 C24.0524393,56.9007735 23.8342649,57.6945831 23.6466044,58.4427808 C23.1538049,60.3920957 25.1997619,62.5182573 27.0260188,62.373419 C29.141395,62.2061749 31.0508023,59.8799604 29.4678937,57.8090134" id="Fill-98" fill="#AB2543"></path>
            </g>
            <g id="Group-2" transform="translate(203.199998, 49.679999)">
                <path d="M70.9981579,160.879025 C72.0168139,159.338081 72.4950379,157.448513 72.3382219,155.608193 C72.2799019,154.920017 72.1282699,154.225361 71.7498379,153.648641 C71.3908459,153.108209 70.860782,152.709041 70.338494,152.320241 C64.5738862,148.043441 54.7372467,137.35533 47.474463,137.071506 C47.899551,141.818754 73.3983498,157.239857 70.9981579,160.879025" id="Fill-22" fill="#4B7830"></path>
                <path d="M84.8688565,40.0117376 C85.3094965,39.9197216 85.7384725,39.7551296 86.0508085,39.5140736 C86.9009844,38.8608896 86.9631924,37.7281857 87.6721044,37.0011297 C88.1775444,36.4814337 89.0316083,36.2714817 89.3880083,35.6221858 C90.1046963,34.3197058 90.4960882,32.8254179 90.6308722,31.33761 C90.6645682,30.965658 90.7151122,30.589818 90.7021522,30.213978 C90.6801202,29.4791461 90.2070803,28.8622501 89.7470003,28.3373701 C89.2130483,27.7295461 89.1236243,26.8223462 88.6765043,26.1380582 C88.2747443,25.5237542 87.6902484,24.6865383 87.1018644,24.2588583 C86.6262324,23.9128263 86.0443285,23.7028743 85.5090805,23.5266183 C83.7685526,22.9486024 81.0249207,22.2370984 79.5682168,23.7754503 C79.1664568,24.2005383 78.6545368,24.5193543 78.0739288,24.6619143 C76.8414329,24.9599943 76.4331929,26.2028582 75.9070169,27.2266982 C75.6763289,27.6764101 75.4352729,28.1196421 75.216249,28.5758341 C74.789865,29.4519301 74.428281,30.381162 74.414025,31.367418 C74.391993,32.7139619 74.876697,33.6730019 75.6866969,34.7201698 C76.0443929,35.1867298 76.3308089,35.5573858 76.5394649,36.1198498 C76.7494169,36.6849057 76.9062329,37.2784737 77.2768889,37.7683617 C77.8873048,38.5744736 78.8178328,38.9166176 79.7068887,39.3248576 C80.3652567,39.6229376 81.0897207,39.7654976 81.7882646,39.9223136 C82.7952566,40.1517056 83.8553846,40.2255776 84.8688565,40.0117376" id="Fill-24" fill="#DC8596"></path>
                <path d="M38.8171834,1.67087535 C38.2443515,2.02468334 37.7285435,2.46791532 37.4097275,2.96817129 C36.5491835,4.30953123 37.0338875,5.93341916 36.4092156,7.31106709 C35.9607996,8.29602705 34.8734556,9.02308301 34.6984956,10.114315 C34.3524636,12.3032589 34.5624156,14.5984748 35.1248796,16.7524267 C35.2661436,17.2928586 35.3853756,17.8423626 35.5927356,18.3633546 C35.9983836,19.3833065 36.9716795,20.0118665 37.8840635,20.5147145 C38.9415994,21.0940265 39.5247994,22.3213384 40.4980954,23.0561704 C41.3715993,23.7158343 42.6170553,24.5906343 43.6551512,24.8938983 C44.5014392,25.1427303 45.4228951,25.1375463 46.2614071,25.1181063 C48.995967,25.0455303 53.2027828,24.6567303 54.4676787,21.7588744 C54.8163027,20.9605385 55.3748787,20.2529225 56.1135986,19.7617385 C57.6921266,18.7158666 57.6376946,16.7666827 57.8541266,15.0663307 C57.9513266,14.3198348 58.0666705,13.5720428 58.1457265,12.8229548 C58.2973585,11.3818029 58.3323505,9.89269897 57.8567186,8.50338704 C57.2048306,6.60085912 56.0423186,5.50573918 54.3743667,4.44431522 C53.6343508,3.97386725 53.0485588,3.59802726 52.4692468,2.9137393 C51.8886388,2.22815533 51.3689429,1.47388336 50.6017109,0.976219386 C49.336815,0.154555424 47.855487,0.144187424 46.4039671,0.0249554296 C45.3308791,-0.0644685663 44.2422392,0.105307426 43.1821112,0.23620342 C41.6554233,0.425419411 40.1313274,0.859579391 38.8171834,1.67087535" id="Fill-26" fill="#DC8596"></path>
                <path d="M112.417668,94.0375687 C115.480116,89.4756489 118.545156,84.9098411 121.71906,80.4230893 C124.563779,76.4054895 129.137363,74.0065936 131.873219,69.5690898 C132.332003,68.8277778 132.727283,67.7793139 132.105203,67.1701939 C131.875811,66.9459859 131.559587,66.8474899 131.253731,66.7580659 C129.391379,66.228002 127.461635,65.936402 125.526707,65.889746 C122.569236,65.81717 123.11874,69.7440498 122.037876,71.6880497 C119.942244,75.4581135 117.6237,79.1102414 115.047252,82.5938892 C112.628916,85.8585131 108.555588,92.2115048 108.555588,92.2115048 C108.555588,92.2115048 112.163652,84.2735051 107.539524,71.8474577 C107.1261,70.7380818 105.463332,68.2186579 105.057684,69.4122738 C104.65074,70.6058898 104.525028,74.7764176 103.676148,77.3178734 C103.143492,78.9171374 102.387924,80.4360493 101.876005,82.0417932 C101.250037,84.0130091 101.001205,86.094385 101.043973,88.1640969 C101.108773,91.1837768 101.968021,95.0264166 105.060276,96.2291046 C105.495732,96.3975846 98.2329487,107.611872 97.7223247,108.430944 C97.2868687,109.129488 96.0310448,111.884784 95.1756848,112.149168 C94.9786928,112.211376 94.8218768,111.984576 94.7389328,111.79536 C93.8835729,109.840992 93.5375409,107.679264 92.8571409,105.640656 C92.105461,103.38432 91.357669,101.12928 90.605989,98.8729444 C87.0406932,88.1420649 83.3159894,77.4280334 80.0267415,66.6090259 C78.9614296,63.1007541 78.4650616,59.4486263 78.2589976,55.7952024 C78.1397656,53.7216025 77.6615416,45.2639069 78.5259736,43.212339 C79.5666616,40.7395711 83.5946294,41.1776191 85.7187733,40.6397791 C86.8164852,40.3611392 88.6593971,39.9204992 89.3670131,38.9122112 C89.9644691,38.0555553 89.1674291,37.8261633 88.4053811,37.8961473 C87.3452532,37.9933473 86.4808212,38.0724033 85.3429333,37.9129953 C82.8325814,37.5578913 80.2457655,37.0744833 77.7963256,37.7289633 C77.9207416,37.6939713 76.4070137,32.1898595 76.2268697,31.6960836 C75.6423737,30.0773796 75.0773178,28.5792037 73.7826138,27.1976678 C73.4521338,26.8464518 72.9777979,26.8205318 73.0451899,27.8702917 C73.1086939,28.8863557 72.9363259,29.3529157 72.6823099,30.3391716 C72.3038779,31.8088356 72.4529179,33.3692195 72.8637499,34.8285154 C73.4534298,36.9254433 75.0721338,38.7852032 75.0591738,40.9637791 C75.0526938,42.871491 74.9697498,44.775315 74.9451258,46.6804349 C74.8881018,50.6047227 74.8906938,54.5290105 74.8997658,58.4520023 C74.8997658,58.6269623 75.0151098,61.3511542 74.8660698,61.2487702 C71.4122299,58.9133783 68.7554301,55.6889304 66.0117982,52.6109306 C63.2979743,49.5705147 60.6463584,46.3888349 58.9680385,42.6395071 C57.7549826,39.9347552 56.5691426,36.9306273 55.6580547,34.1170114 C54.8001027,31.4666916 54.3270627,28.3303717 55.2251907,25.6282118 C56.2192226,22.648708 58.1761825,20.0735561 59.3957185,17.1899562 C60.8524224,13.7490764 61.9708704,5.42098078 60.1823904,5.22917279 C59.3905345,5.14493279 59.3088865,7.32091669 58.7010625,8.27477265 C58.0517665,9.2947246 57.2793506,10.2343246 56.5678466,11.2128045 C55.2524067,13.0246124 54.2052387,14.9725003 53.2811908,17.0059242 C52.7731588,18.1217802 52.2819748,19.2389321 51.9190948,20.4118121 C51.7674628,20.8978121 50.9276549,23.183956 51.2685029,23.5973799 C48.868311,20.7008201 44.8196072,19.7897321 41.0599113,19.6108841 C37.8873035,19.4592521 34.6447116,19.6912361 31.5459758,19.1080361 C30.9744398,19.0004681 29.6408559,18.3278442 29.8443279,19.1015561 C30.0231758,19.7819561 32.3637517,21.830932 34.1159437,22.80034 C35.8694316,23.7684519 37.7913995,24.3840519 39.6991114,24.9931719 C42.4427433,25.8705638 45.1837831,26.7466598 47.927415,27.6227558 C48.261783,27.7303237 48.600039,27.8391877 48.881271,28.0439557 C49.210455,28.2772357 49.4385509,28.6219717 49.6575749,28.9576357 C51.9035428,32.4088835 52.8224068,36.5042433 54.4411107,40.2768992 C56.9112866,46.0285469 59.8441345,51.6946586 63.8034143,56.5753944 C72.7665499,67.6224979 75.2665338,68.2471699 77.3530937,72.2064497 C80.2315095,77.6794574 81.8515094,84.1309451 83.7462614,89.9836809 C85.2288853,94.5585606 86.6570772,99.1515844 87.9077172,103.79256 C89.8815251,111.14088 92.394469,117.733632 89.1777971,125.228399 C87.2001012,129.836975 84.5316373,134.078783 82.1431094,138.481295 C81.1322295,140.346239 77.9453656,147.417214 75.2756057,146.922142 C74.0444058,141.23011 73.3860378,135.589919 71.9228539,129.941951 C70.714982,125.298383 69.12479,120.994367 67.2520701,116.560752 C60.6359904,100.899888 48.856647,86.894017 47.0590951,84.6856331 C46.6754791,84.2151851 46.2568711,83.7175211 45.6736711,83.5477452 C44.8999592,83.3183532 44.0329352,83.7771371 43.6324712,84.4769771 C43.2294152,85.1755211 43.5897032,85.8533291 43.8113192,86.625745 C44.5176392,89.1114729 49.251927,92.4240487 59.6899105,110.141664 C63.3783263,116.40264 66.5846302,127.128335 68.1657501,135.934655 C68.802086,139.480511 69.268646,143.053582 69.739094,146.624062 C70.052726,148.998334 69.958118,151.583854 69.920534,153.96331 C69.875174,156.85987 69.842774,159.825118 69.223286,162.665949 C66.3046942,176.004381 64.0017023,193.226924 63.1320863,202.1123 C63.1398623,202.15118 62.7588383,202.1123 62.7588383,202.1123 L70.83551,202.1123 C70.83551,202.1123 72.2338939,184.502252 72.3012859,183.727245 C72.7173019,178.912605 73.5558138,174.261261 74.8349658,169.523085 C78.3186136,156.648622 84.3592693,145.127182 90.408997,133.345247 C93.2977809,127.720607 96.0362288,122.018207 98.8952047,116.379312 C100.931221,112.360416 103.133124,108.416688 105.701796,104.708832 C108.095508,101.260176 110.069316,97.5328805 112.417668,94.0375687" id="Fill-28" fill="#4B7830"></path>
                <g id="Group-32" transform="translate(111.999449, 35.963365)">
                    <mask id="mask-2" fill="white">
                        <use xlink:href="#path-1"></use>
                    </mask>
                    <g id="Clip-31"></g>
                    <path d="M1.01878555,30.1873954 C0.553521574,29.0339554 0.272289587,27.8118275 0.343569584,26.7192995 C0.535377575,23.7877477 3.02758546,21.9033638 3.60300943,19.1713959 C4.01384141,17.218324 3.19217745,14.9464361 4.12918541,13.1346282 C6.00579332,9.50323634 8.82200119,6.31896449 12.014049,3.73214861 C12.816273,3.08544464 13.597761,2.39856467 14.4712649,1.8503567 C16.1897608,0.774676745 18.3203848,0.906868739 20.2280967,1.15958873 C22.4338886,1.44989271 24.6448645,0.261460769 26.8934244,0.23424477 C28.9151843,0.212212771 31.7210241,0.271828768 33.596336,0.953524737 C35.121728,1.51080471 36.4915999,2.52298066 37.7137279,3.47424462 C41.7041117,6.56650048 47.5322234,11.7466122 46.2439995,17.434756 C45.8863035,19.0029159 45.9433275,20.6656838 46.5096794,22.2027398 C47.7110714,25.4816196 45.5000955,28.3185635 43.9617436,31.0868193 C43.2865276,32.3011713 42.6463036,33.5362592 41.9425757,34.7376512 C40.5895517,37.0445311 39.0187998,39.298275 36.7922719,40.8456989 C33.742784,42.9581788 30.8151202,43.3145788 27.1785443,43.0696348 C25.5637284,42.9633628 24.2819845,42.8778268 22.6723525,43.2614428 C21.0601286,43.6489468 19.4582727,44.2010427 17.7773608,44.1038427 C14.9974409,43.9418427 12.785169,42.3373948 10.4951371,40.9286429 C8.80256119,39.8879549 7.37307326,38.449395 5.93580932,37.0898911 C3.87646542,35.1394112 2.0840975,32.8338273 1.01878555,30.1873954" id="Fill-30" fill="#DC8596" mask="url(#mask-2)"></path>
                </g>
                <path d="M135.394451,45.6323597 C136.398851,45.1670957 137.444723,44.9078957 138.646115,45.2461517 C141.212195,45.9757997 142.900883,47.9457196 145.205171,48.9967756 C147.995458,50.2655595 147.81013,51.8194634 148.275394,54.5954953 C148.456834,55.6763592 148.763986,56.5926312 148.771762,57.7227432 C148.789906,60.255127 148.195042,62.6358789 146.772034,64.6796708 C145.463074,66.5588707 143.649971,68.0466787 141.630803,69.1171746 C138.427091,70.8175265 134.618147,71.5238465 131.244659,70.0165986 C129.448403,69.2130786 127.736387,67.6306627 126.081395,66.5394307 C125.000531,65.8279268 123.335172,65.1591908 122.59386,64.0951749 C121.119012,61.967143 121.209732,58.2424391 122.391684,56.0573832 C123.140772,54.6732553 123.519204,54.7678633 124.889075,52.9625354 C126.033443,51.4565834 126.865475,49.3000395 128.622851,48.2995276 C129.725747,47.6709676 130.883075,47.3806636 132.094835,47.1110956 C133.302707,46.8428237 134.248787,46.1624237 135.394451,45.6323597" id="Fill-33" fill="#F5A900"></path>
                <path d="M0.821834801,77.3072462 C0.267146827,75.9295983 -0.0724051573,74.4638224 0.0131308387,73.1561584 C0.241226828,69.6414066 3.22721069,67.3902547 3.91668266,64.1165589 C4.40916263,61.778575 3.42420268,59.0595671 4.54653863,56.8900632 C6.79250652,52.5406874 10.1634024,48.7291516 13.9853062,45.6343037 C14.9469381,44.8567038 15.8800581,44.0324478 16.9311141,43.3779678 C18.987866,42.0910399 21.5396898,42.2504479 23.8232417,42.5511199 C26.4618976,42.8971518 29.1096255,41.4780319 31.8001214,41.4456319 C34.2236413,41.4158239 37.5828731,41.4883999 39.827545,42.3048799 C41.6562009,42.9697278 43.2943448,44.1840798 44.7575288,45.3219677 C49.5332885,49.0272316 56.5122482,55.2247033 54.9687123,62.036479 C54.5436243,63.9143829 54.6123123,65.9063348 55.2875283,67.7466547 C56.7260882,71.6696465 54.0796563,75.0690544 52.2393364,78.3829262 C51.4306325,79.8396301 50.6608085,81.3157741 49.8197045,82.753038 C48.2010006,85.5187019 46.3192087,88.2156777 43.6520408,90.0676617 C40.005097,92.5974535 36.4968251,93.0251335 32.1396733,92.7322375 C30.2099294,92.6026375 28.6728735,92.5028455 26.7483136,92.9629255 C24.8172737,93.4255975 22.9017858,94.0839655 20.8878019,93.9673255 C17.558378,93.7755175 14.9119461,91.8535496 12.1683143,90.1674537 C10.1413704,88.9194057 8.43065045,87.1996138 6.71085853,85.5705419 C4.24586664,83.237742 2.09839474,80.4772621 0.821834801,77.3072462" id="Fill-35" fill="#DC8596"></path>
                <path d="M27.612616,52.7401418 C28.8178959,52.1854538 30.0698318,51.8705258 31.5045038,52.2800618 C34.5786156,53.1509738 36.6003755,55.5109897 39.3621514,56.7694056 C42.6980553,58.2870215 42.4764393,60.1480774 43.0376072,63.4736133 C43.2540392,64.7657252 43.6195112,65.8621412 43.6298792,67.2164611 C43.6519112,70.249101 42.9404072,73.0977088 41.2374633,75.5445567 C39.6680074,77.7983006 37.4972075,79.5790045 35.0827596,80.8581565 C31.2427118,82.8967644 26.685976,83.7417563 22.6450482,81.9364284 C20.4936883,80.9747965 18.4447124,79.0748606 16.4657205,77.7710846 C15.1710165,76.9196127 13.1738806,76.1225727 12.2874167,74.8447168 C10.5196728,72.3006689 10.6285367,67.8411331 12.0463607,65.2219172 C12.9418966,63.5643333 13.3954966,63.6757893 15.0362325,61.5166534 C16.4061045,59.7113255 17.4014324,57.1296936 19.5074323,55.9321896 C20.8280563,55.1831017 22.2095922,54.8344777 23.6611121,54.5104777 C25.1100401,54.1864777 26.240152,53.3751818 27.612616,52.7401418" id="Fill-37" fill="#F5A900"></path>
                <path d="M105.948425,100.930085 C108.458777,99.2401012 116.263289,93.5623255 129.924424,97.6239893 C133.741144,98.7592853 123.307048,106.698581 112.454345,107.315477 C107.726537,107.585045 99.7587294,105.839333 107.099273,100.897685 L105.948425,100.930085 Z" id="Fill-39" fill="#4B7830"></path>
                <path d="M115.574724,131.706325 C116.938116,132.185845 114.03378,136.073845 112.661316,137.963413 C110.323332,141.180085 107.930916,144.378613 105.092676,147.163717 C100.090117,152.071668 93.7241649,155.557908 86.9162772,157.205124 C84.2918773,157.840164 78.7320376,159.65586 77.5047256,156.26682 C76.4212697,153.269172 79.6573815,151.572708 81.2423895,149.613156 C91.263061,137.231173 108.284724,129.141541 115.574724,131.706325" id="Fill-41" fill="#4B7830"></path>
                <path d="M74.1173706,160.342351 C74.3389866,159.474031 74.6953866,158.639407 75.2034186,158.031583 C76.5668105,156.401215 78.8231464,156.368815 80.3265063,155.019679 C81.3995943,154.055455 81.8881862,152.378432 83.2075142,151.722656 C85.8539461,150.40592 88.8541859,149.747552 91.8207298,149.603696 C92.5646337,149.566112 93.3137217,149.49872 94.0589217,149.553152 C95.5182176,149.658128 96.7053536,150.646976 97.7110495,151.606016 C98.8735615,152.715392 100.668521,152.966816 101.991737,153.911599 C103.181465,154.760479 104.794985,155.992975 105.595913,157.190479 C106.249097,158.168959 106.614569,159.343135 106.923017,160.420111 C107.930009,163.925791 109.119737,169.432495 105.940649,172.202047 C105.063257,172.964095 104.386745,173.959423 104.060153,175.097311 C103.362905,177.522126 100.862921,178.234926 98.7841375,179.19267 C97.8730495,179.61387 96.9723295,180.059694 96.0482816,180.458862 C94.2753537,181.229982 92.3948578,181.872798 90.4353058,181.824846 C87.756474,181.757454 85.8967141,180.714174 83.8775462,179.019006 C82.9833062,178.269918 82.2718022,177.672462 81.1689063,177.211086 C80.0634183,176.745822 78.8957224,176.384238 77.9561224,175.610526 C76.4035145,174.330079 75.7982825,172.450879 75.0634506,170.653327 C74.5178346,169.321039 74.2988106,167.874703 74.0396106,166.467247 C73.6715466,164.450671 73.6093386,162.342079 74.1173706,160.342351" id="Fill-43" fill="#DC8596"></path>
                <path d="M95.9259392,157.921164 C96.7100192,158.080572 97.4318911,158.37606 97.9878751,159.083676 C99.172419,160.60518 99.317571,162.476604 100.213107,164.070684 C101.299155,166.000428 100.526739,166.829868 99.615651,168.648156 C99.259251,169.354476 99.048003,170.019324 98.5697791,170.682876 C97.4992831,172.168091 96.1371872,173.303387 94.4342433,173.889179 C92.8686753,174.427019 91.1748034,174.520331 89.5444355,174.281867 C86.9472516,173.906027 84.4252357,172.695563 83.1007238,170.375724 C82.3956998,169.140636 82.0716998,167.484348 81.5714439,166.144284 C81.2448519,165.266892 80.5579719,164.167884 80.5812999,163.228284 C80.6253639,161.359452 82.2686918,159.226236 83.8925798,158.45382 C84.9203077,157.966524 85.1017477,158.182956 86.6712036,157.7151 C87.9801636,157.323708 89.3876195,156.421692 90.8391394,156.590172 C91.7502274,156.695148 92.5472673,157.016556 93.3715233,157.375548 C94.1905953,157.73454 95.0316992,157.739724 95.9259392,157.921164" id="Fill-45" fill="#F5A900"></path>
                <path d="M52.1466724,111.724598 C51.0632165,111.016982 49.8708965,110.484326 48.7433766,110.337878 C45.7055527,109.941302 43.2846248,112.108214 40.376401,112.145798 C38.2976171,112.170422 36.1462572,110.875718 34.1076493,111.465398 C30.0213614,112.651238 26.2020496,114.884246 22.9205778,117.625286 C22.0963218,118.312166 21.2370739,118.970534 20.5022419,119.754614 C19.058498,121.292966 18.765602,123.496166 18.638594,125.493302 C18.488258,127.80407 16.8332661,129.823237 16.3524501,132.111973 C15.9221781,134.171317 15.4167381,137.048437 15.7342581,139.101301 C15.9960501,140.774437 16.7555061,142.374997 17.47997,143.813557 C19.8360979,148.510261 23.9496017,155.503476 30.0161774,155.332404 C31.6893134,155.284452 33.3754093,155.681028 34.8321132,156.5649 C37.9373291,158.454468 41.2810089,156.76578 44.4160328,155.752308 C45.7923847,155.309076 47.1816967,154.903428 48.5489766,154.427796 C51.1811525,153.511524 53.7977763,152.35938 55.8247203,150.397236 C58.5955681,147.710629 59.5520161,144.792037 60.0341281,141.028453 C60.249264,139.359205 60.420336,138.032101 61.137024,136.469125 C61.855008,134.898373 62.7414719,133.376869 62.9799359,131.638933 C63.3765119,128.768293 62.182896,126.185366 61.204416,123.563558 C60.482544,121.624742 59.3018881,119.876438 58.2041761,118.13591 C56.6282402,115.64111 54.6336963,113.345894 52.1466724,111.724598" id="Fill-47" fill="#DC8596"></path>
                <path d="M26.689864,130.439485 C26.012056,131.373901 25.5364241,132.388669 25.6414001,133.680781 C25.8682,136.451629 27.541336,138.571885 28.1491599,141.135373 C28.8839919,144.237997 30.5065838,144.362413 33.2476237,145.399213 C34.3168236,145.802269 35.1877356,146.297341 36.3411756,146.534509 C38.9253994,147.064573 41.4746313,146.936269 43.8476072,145.894285 C46.0313671,144.936541 47.913159,143.381341 49.4126309,141.539725 C51.7946788,138.609469 53.2837828,134.864029 52.4219428,131.114701 C51.9644548,129.120157 50.6917829,127.051742 49.9128869,125.14403 C49.4022629,123.895982 49.058823,122.058254 48.117927,121.08755 C46.2452071,119.152622 42.4233033,118.49555 39.9531274,119.262782 C38.3875595,119.747486 38.4069995,120.155726 36.2880396,121.189934 C34.5202956,122.05307 32.1499117,122.470382 30.7761518,124.063166 C29.9143119,125.064974 29.3842479,126.184718 28.8632559,127.36667 C28.3461519,128.547325 27.46228,129.378061 26.689864,130.439485" id="Fill-49" fill="#F5A900"></path>
                <path d="M61.519344,91.596164 C62.214,89.6016201 63.1821119,87.7211242 63.9713759,85.7628683 C65.3710558,82.2895884 65.4293758,76.0778607 67.0195677,74.9464528 C68.6097597,73.8150448 69.7761596,79.3256366 69.9653756,81.9941004 C70.2362396,85.7836043 70.5083996,89.5744041 70.7792636,93.3664999 C71.1628795,98.6930597 72.3396475,103.361251 68.1185757,111.803395 C65.3179198,117.403411 62.9112479,112.630243 61.568592,108.213475 C59.9926561,103.024291 59.7192001,96.7672037 61.519344,91.596164" id="Fill-51" fill="#4B7830"></path>
            </g>
            <g id="Group-4" transform="translate(413.599995, 5.760000)">
                <path d="M175.963438,110.182286 C175.651102,110.547758 175.289518,110.88083 174.917566,111.085598 C173.91835,111.640286 172.921726,111.333134 171.930286,111.73619 C171.223966,112.025198 170.595406,112.722446 169.857982,112.83779 C168.374062,113.06459 166.896622,112.933694 165.563038,112.574702 C165.229966,112.485278 164.883934,112.411406 164.571598,112.279214 C163.957294,112.020014 163.682542,111.397934 163.477774,110.810846 C163.24579,110.138222 162.518734,109.764974 162.172702,109.142894 C161.860366,108.581726 161.459902,107.784686 161.404174,107.121134 C161.357518,106.579406 161.488414,105.985838 161.618014,105.45059 C162.043102,103.695806 162.880318,100.996239 164.952622,100.179759 C165.528046,99.9568466 166.067182,99.5965586 166.49227,99.1222226 C167.394286,98.1074547 168.666958,98.1385587 169.811326,97.9972947 C170.314174,97.9324947 170.819614,97.8573267 171.322462,97.8054867 C172.290574,97.7043987 173.269054,97.6823667 174.116638,97.9817427 C175.273966,98.3977586 175.828654,99.1416626 176.295214,100.209567 C176.501278,100.683903 176.667166,101.059743 177.036526,101.429102 C177.405886,101.801054 177.828382,102.134126 178.048702,102.622718 C178.412878,103.432718 178.21459,104.38139 178.092766,105.31451 C178.003342,106.00139 177.74155,106.698638 177.506974,107.38163 C177.17131,108.358814 176.677534,109.335998 175.963438,110.182286" id="Fill-1" fill="#F5A900"></path>
                <path d="M119.479224,42.480286 C118.937496,42.249598 118.435944,41.9333741 118.097688,41.5380941 C117.18012,40.4831501 117.388776,38.9979342 116.666904,37.8807822 C116.154985,37.0798543 115.118185,36.5938543 114.826585,35.6607343 C114.243385,33.7983824 114.126745,31.7649585 114.332809,29.8041106 C114.384649,29.3103346 114.418345,28.8152627 114.528505,28.3318547 C114.743641,27.3857747 115.504393,26.7027828 116.226265,26.1416148 C117.060888,25.4871348 117.405624,24.3349909 118.150824,23.5586869 C118.820856,22.8627349 119.779896,21.927023 120.637848,21.521375 C121.3338,21.188303 122.133432,21.065183 122.860488,20.967983 C125.229576,20.656943 128.910216,20.4223671 130.381176,22.7797909 C130.782936,23.4316789 131.355768,23.9747029 132.059496,24.3012949 C133.557672,24.9985428 133.76244,26.7118548 134.171976,28.1685587 C134.35212,28.8074867 134.549112,29.4451186 134.713704,30.0866386 C135.033816,31.3282065 135.256728,32.6216145 135.027336,33.9046544 C134.711112,35.6555503 133.849272,36.7727023 132.548088,37.9300302 C131.968776,38.4406542 131.509992,38.8501902 131.101752,39.5279982 C130.69092,40.2071021 130.337112,40.9354541 129.740952,41.4745901 C128.755992,42.367534 127.479432,42.577486 126.240456,42.884638 C125.328072,43.108846 124.367736,43.108846 123.432024,43.137358 C122.090664,43.181422 120.720792,43.011646 119.479224,42.480286" id="Fill-3" fill="#F5A900"></path>
                <g id="Group-7" transform="translate(159.865894, 0.000000)">
                    <mask id="mask-4" fill="white">
                        <use xlink:href="#path-3"></use>
                    </mask>
                    <g id="Clip-6"></g>
                    <path d="M28.1564339,4.3576702 C28.7966578,4.96031017 29.3448658,5.66403814 29.6222098,6.3897981 C30.3751858,8.34416601 29.3461618,10.3244539 29.7945778,12.2658618 C30.1146898,13.6538778 31.3160817,14.8695257 31.2616497,16.3236376 C31.1450097,19.2448215 30.2974258,22.1647094 29.0299378,24.8137332 C28.7111218,25.4759892 28.4169299,26.1628692 28.0229459,26.7836532 C27.2453459,28.0044851 25.843074,28.5721331 24.549666,28.9946291 C23.0540821,29.481925 21.9939542,30.925669 20.5670582,31.6332849 C19.2801303,32.2696209 17.4696184,33.0899889 16.0686424,33.2234769 C14.9268665,33.3310449 13.7500985,33.0964689 12.6847866,32.8593009 C9.21280275,32.0829969 3.940675,30.522613 3.06587504,26.4544692 C2.82352305,25.3334292 2.28957107,24.2771893 1.47309111,23.4542293 C-0.276508806,21.7085174 0.291139167,19.1968695 0.44406716,16.9379416 C0.512755157,15.9465017 0.555523155,14.9537657 0.646243151,13.9623258 C0.818611143,12.0559098 1.15297913,10.1183899 2.11331508,8.43747801 C3.42745902,6.13967012 5.19520294,5.01085417 7.59150683,4.05440621 C8.65552278,3.62672623 9.50051474,3.28976625 10.4116027,2.54715828 C11.3278747,1.80584632 12.1845306,0.956966356 13.2913146,0.507254376 C15.1160825,-0.241833589 17.0069464,0.117158395 18.8939223,0.323222385 C20.2858262,0.477446378 21.6284822,0.968630355 22.9516981,1.40797433 C24.849042,2.03523831 26.6815859,2.97613426 28.1564339,4.3576702" id="Fill-5" fill="#F5A900" mask="url(#mask-4)"></path>
                </g>
                <path d="M180.589898,27.0319667 C175.828395,25.9005588 170.350203,26.4850548 166.546443,29.6356306 C167.088171,29.1859186 166.596987,26.0171988 166.529595,25.3471668 C166.361115,23.7375349 166.017675,22.169375 165.653499,20.597327 C164.995131,17.7318712 164.152731,14.9454713 162.933195,12.2705274 C162.277419,10.8228955 161.529627,9.41673556 160.959387,7.93151963 C160.426731,6.5422077 160.526523,4.06295981 159.842235,3.61324783 C159.156651,3.16353585 158.836539,4.54636779 158.679723,5.24361576 C157.611819,9.96494354 156.818667,14.4815033 157.803627,19.3052151 C158.623995,23.3422549 160.468203,27.1706387 160.976235,31.2763666 C161.440203,34.9997744 160.034043,38.9447982 158.261115,42.162766 C156.385803,45.5777259 154.108732,49.1728297 151.873132,52.3700616 C148.775692,56.8049734 144.579244,60.2652932 140.34262,63.5234371 C136.054156,66.8204609 131.840861,70.3300287 126.839597,72.4930526 C126.627053,72.5850686 127.464269,69.0871648 127.508333,68.8603648 C128.516621,63.780045 129.521021,58.7010213 130.448957,53.6051495 C130.901261,51.1284936 131.283581,48.6427657 131.756621,46.1712939 C132.295757,43.344718 134.837212,41.3423981 136.120252,38.7776142 C137.015788,36.9878383 137.77006,34.9855184 137.4979,33.0078225 C137.223148,31.0055026 137.9839,29.3440306 136.77214,29.2286866 C135.561676,29.1133427 133.787452,31.9269585 132.626237,33.8774384 C132.271133,34.4684144 128.937821,41.2205741 129.088157,41.2957421 C126.126797,39.8351502 122.701469,39.8118222 119.409629,39.6420462 C117.915341,39.5668782 116.833181,39.2480622 115.502189,38.8553742 C114.548333,38.5754382 113.472653,38.6700462 114.018269,39.9310541 C114.661085,41.4123821 116.903165,42.44659 118.232861,43.08163 C120.806717,44.3115339 126.061997,44.7521739 126.763133,48.2150858 C127.343741,51.0870216 124.576781,61.9202851 123.900269,64.577085 C122.704061,69.2582368 121.141085,73.8655166 118.888637,78.1410204 C111.938189,91.3304118 104.45379,104.270971 97.1702702,117.277627 C95.6396943,120.01089 94.1078223,122.746746 92.5746544,125.478714 C91.1879345,127.94889 90.1964945,130.661418 88.6037106,132.979962 C88.4507826,133.201578 88.1954706,133.45689 87.9595986,133.328586 C86.9331667,132.768714 86.0337427,128.88849 85.6540147,127.876314 C85.2120787,126.687882 78.794287,110.342731 79.396927,110.232571 C83.6465108,109.449787 85.7239987,104.692171 86.5728787,100.792507 C87.1534866,98.1227475 87.3686226,95.3674516 87.0705427,92.6536277 C86.8268947,90.4452438 86.2501747,88.2925879 85.9754227,86.088092 C85.5581107,82.7288602 85.9378387,77.4658044 86.1983347,76.6454364 C86.4562387,75.8263645 85.9728307,75.6539965 85.4764627,75.7058365 C84.7377428,75.7823005 83.2330868,77.0122044 82.4373429,78.0360444 C81.4808949,79.2672443 80.8354869,80.7135803 80.223775,82.1521402 C78.4689911,86.278604 76.8567671,90.6085398 76.5910871,95.1315796 C76.3889111,98.5245074 75.6644472,102.039259 76.2748632,105.411451 C75.3274872,100.189867 72.3726073,94.9073716 70.1175674,90.0719958 C67.7160796,84.9178041 65.6865436,79.6042043 63.9719357,74.1972926 C63.0854718,71.4083007 64.7871197,66.4614689 60.9950239,65.8134689 C58.51448,65.389677 55.9769121,65.285997 53.4652642,65.505021 C53.0492482,65.541309 52.6215682,65.593149 52.2742403,65.8225409 C51.3216803,66.4575809 51.5601443,67.9142849 51.9554243,68.9912608 C54.3180322,75.4220125 59.5460959,79.6715963 62.1549438,85.590428 C65.0657597,92.1948437 67.8119835,98.8770194 70.5620954,105.552715 C71.6922074,108.298939 72.6706873,111.103483 73.6686073,113.895067 C71.4109754,111.824059 68.9485755,109.983739 66.1751356,108.727915 C59.9206399,105.894859 46.3670725,105.521611 45.4287686,107.509675 C44.9168486,108.590539 46.0586246,109.830811 46.8517765,110.634331 C52.4621603,116.310811 59.5201759,120.481338 67.1341756,122.737674 C70.3080794,123.677274 74.8570392,123.974058 77.1289271,122.767482 C79.124767,127.681914 80.7227349,132.754458 82.1340789,137.871066 C84.3450548,145.894601 86.3888467,153.963497 88.6477746,161.97148 C89.0482386,163.393192 89.4487025,164.813608 89.8465745,166.230136 C88.7903346,165.570472 87.5047026,165.087064 86.4329107,164.4922 C82.1923989,162.136072 78.0788951,159.919913 73.5688153,158.087369 C64.7599037,154.510409 55.1928321,151.253561 45.8992166,153.185897 C45.8201606,153.202745 45.5363366,153.401033 45.6128006,153.607097 C46.4448325,155.858249 48.2903365,157.601369 50.1151044,159.190265 C53.3771362,162.025912 56.6936001,164.834344 60.3807199,167.094568 C66.8827516,171.078472 74.4876792,173.223352 82.1133429,173.312776 C84.6211028,173.342584 89.6003345,173.763784 91.3123505,171.476344 C95.0500143,185.011767 98.3664781,198.503127 99.3138541,212.726726 C99.7415341,219.18599 97.8623342,233.873557 97.1676782,240.212293 C96.6661262,244.788469 98.6049421,243.856645 103.28091,246.062443 C103.297758,246.067621 106.86435,243.098485 107.86875,239.384149 C108.87963,235.656853 108.554334,223.256726 108.22515,205.251398 C108.15387,201.417831 108.867966,197.570007 109.549662,193.809015 C110.106942,190.714167 110.643486,187.343271 111.650478,184.345623 C113.159021,179.840728 114.664973,175.329352 116.380877,170.897032 C120.638237,159.887513 126.027005,148.666745 133.76542,139.614186 C137.609356,135.114474 142.0015,131.153898 146.214796,127.02225 C149.551996,123.751146 152.904748,119.89425 156.457083,116.960107 C159.986091,114.042811 165.849195,115.797595 170.009355,115.038139 C171.012459,114.856699 177.69593,113.660491 177.978458,112.394299 C178.276538,111.056827 173.741835,111.349723 172.683003,111.297883 C169.509099,111.138475 166.276875,109.666219 163.231275,108.939163 C161.300235,108.477787 165.500571,98.0449875 165.212859,96.5105235 C165.008091,95.4218836 163.844283,96.5273715 163.434747,96.9369075 C162.208731,98.1771794 161.389659,99.9591794 160.711851,101.544187 C159.399003,104.635147 158.379051,107.649643 156.029403,110.096491 C153.589036,112.634059 150.882988,115.019995 148.336348,117.456475 C145.67566,120.008298 142.055932,122.351466 139.821628,125.276538 C137.904844,127.062426 136.080076,128.94681 134.325292,130.89729 C136.056748,125.824746 136.851196,120.253242 136.15006,115.136635 C135.772924,112.378747 135.01606,109.697323 134.506732,106.966651 C133.60342,102.118315 134.6143,93.4597397 133.370141,92.1948437 C131.725517,90.5204118 128.736941,97.1779635 127.814189,100.585147 C126.501341,105.423115 125.189789,110.266267 123.879533,115.108123 C122.035325,121.912122 120.183341,129.10881 121.883693,135.894666 C122.775341,139.447002 124.285181,141.054041 125.934989,141.269177 C124.759517,142.851593 123.608669,144.444377 122.478557,146.033273 C118.808285,151.200425 115.833965,156.481625 113.111069,162.195688 C109.803678,169.137064 107.527902,176.280616 104.50563,183.345112 C100.972734,183.317896 98.7047341,173.36332 97.8869582,170.697448 C95.9623982,164.391112 93.6360783,158.228633 92.2843504,151.768073 C90.0889265,141.256217 94.9709583,133.34673 99.3631021,124.327866 C102.14043,118.628059 105.13419,113.033227 108.187566,107.481163 C112.097597,100.373899 115.806749,92.4268277 120.875405,86.060876 C124.545677,81.4523002 127.898429,81.2682682 142.149244,69.2102848 C148.445212,63.879837 153.634396,57.2741253 158.248155,50.4429097 C161.275611,45.9639339 163.491771,40.8900941 167.238507,36.9826543 C167.602683,36.6003343 167.982411,36.2154223 168.460635,35.9925103 C168.875355,35.7994063 169.335435,35.7436783 169.786443,35.6905423 C173.512443,35.2408304 177.195674,35.3315504 180.92945,34.9453424 C191.559242,33.8463344 197.49233,28.2618707 194.707226,28.5249587 C191.922122,28.7880467 187.384826,28.6454867 180.589898,27.0319667" id="Fill-8" fill="#4B7830"></path>
                <path d="M72.4638457,79.9940411 C72.4560697,80.0290331 72.4469977,80.0666171 72.4392217,80.1016091 C71.2974458,84.8384889 67.22671,88.5074647 64.0709501,91.9535285 C58.8662144,97.6390803 51.7421027,99.6893522 44.287511,99.4133042 C42.1517031,99.3355442 40.3632232,98.1795122 38.5332713,97.2178803 C37.1789514,96.5011923 35.4384234,94.4444404 33.8897035,94.6530964 C31.4169356,94.9874644 28.8093838,97.5081843 26.3210639,98.2728242 C20.6847601,100.002984 14.4769204,98.4724082 10.0964406,94.6414324 C8.3390647,93.1004885 7.05732076,91.0890966 5.80149682,89.1062167 C4.0233849,86.3042648 2.22583299,83.4556569 1.26549703,80.2649051 C0.332377074,77.1648732 0.303865075,73.7913854 1.77482501,70.8416895 C2.86605696,68.6540416 4.49642488,66.9692417 6.09309681,65.1820578 C6.36655279,64.8749058 6.66204078,64.5133218 6.61927278,64.1024898 C6.59205678,63.8238498 6.40932079,63.5892739 6.2356568,63.3741379 C3.82120891,60.349274 1.81370501,56.3316742 0.63045706,52.5888264 C-2.86615078,42.6770188 8.96114467,32.3284593 16.9289523,29.2789714 C21.7746961,27.4347635 27.0260878,29.1921394 31.2225356,31.7659953 C32.2930316,32.4204753 33.5047915,33.1008753 34.7321035,32.8157553 C37.5560873,32.1573873 40.3049032,30.3261394 43.2416391,29.6003794 C49.6594308,28.0192595 55.7674785,30.0086194 61.5450462,32.7004113 C69.0100059,36.1840591 72.5467897,47.0821226 70.7336858,54.8646023 C70.1193818,57.4890021 66.109558,63.0980899 67.218934,65.6512098 C67.598662,66.5221217 68.3775579,67.1416097 68.9607579,67.8919937 C70.1154938,69.3707296 70.7933018,71.8797855 71.5747898,73.6229054 C72.4845817,75.6511453 72.9770617,77.7662172 72.4638457,79.9940411" id="Fill-10" fill="#F8C34D"></path>
                <path d="M59.6867119,50.0416681 C59.6931919,45.4901163 56.6488881,42.1373644 55.8013041,41.2029485 C54.8396721,40.1428205 53.0330482,38.1495726 50.0211444,37.2760687 C45.1365206,35.8582447 40.5590488,38.3893326 39.7788568,38.8221966 C36.433881,40.6715885 35.839017,42.7076044 33.2858971,42.7542604 C31.5790652,42.7866604 31.1786012,41.8885325 28.6462174,40.9593005 C27.6301534,40.5847565 23.9689536,39.2421006 20.0174498,40.2283565 C14.759578,41.5437965 12.1209221,46.1912523 11.7645221,46.8392522 C11.1968742,47.8786442 9.44338625,51.062916 10.1095302,54.8148359 C10.9778502,59.7072356 14.990266,60.1025156 15.375178,64.4972514 C15.574762,66.7509953 14.526298,66.7198913 13.3961861,72.1268031 C12.6224741,75.8346589 12.2362661,77.6879388 12.6224741,79.8509627 C13.2834341,83.5406745 15.828778,87.2446424 19.6467938,89.0292343 C20.4088417,89.3817463 23.0345376,90.5688822 26.2550975,90.0517782 C28.4932894,89.6927862 30.2066013,88.6391383 32.4460892,87.2653784 C35.743113,85.2423224 35.919369,84.3403065 37.503081,84.1860825 C39.6972088,83.9683545 40.4942488,85.5844664 43.3273047,86.7534584 C47.8607125,88.6222903 52.3772723,87.1850264 53.0434162,86.9608184 C53.9907922,86.6445944 59.8577839,84.5684025 61.6112718,78.8660027 C62.7491598,75.1659229 61.8212238,71.0329791 59.9277679,68.3061952 C58.150952,65.7504834 56.2004721,65.3979714 55.8635121,63.0612835 C55.6418961,61.5255235 56.3663601,60.8710436 57.644216,57.5325477 C58.989464,54.0139079 59.6841199,52.207284 59.6867119,50.0416681" id="Fill-12" fill="#F5A900"></path>
                <path d="M37.0212282,54.6340439 C38.5401401,53.1773399 40.835356,53.0671799 42.6601239,53.7773879 C43.2549879,54.0106679 43.8226359,54.3217079 44.2866038,54.7662359 C45.3337718,55.7680438 45.7471958,57.4580277 45.3143318,58.9600917 C44.2412438,62.6912755 37.5448121,63.8058354 35.9611002,59.9515316 C35.2832923,58.3030197 35.6876442,55.9106038 37.0212282,54.6340439" id="Fill-14" fill="#CA4F6D"></path>
                <path d="M36.9656298,63.4547491 C37.8326537,63.2111011 38.7476297,63.2227651 39.7312936,63.6128611 C43.4974695,65.100669 45.4855334,70.0617568 42.0420615,72.9764606 C39.4383977,75.1822525 35.6151978,74.7610525 33.6724939,71.9668767 C32.556638,70.3624287 32.804174,66.1957889 34.3865899,64.912749 C35.2173259,64.237533 36.0675018,63.710061 36.9656298,63.4547491" id="Fill-16" fill="#CA4F6D"></path>
                <path d="M25.4091983,55.8725014 C26.1219983,58.3802613 28.2681742,59.8797332 30.8536941,59.4274292 C34.5459979,58.7768373 36.5159178,54.5479895 33.5441899,51.8212056 C29.9607501,48.5319578 24.1455984,51.4324056 25.4091983,55.8725014" id="Fill-18" fill="#CA4F6D"></path>
                <path d="M24.0916848,64.1211522 C24.2951568,63.3435523 24.6191567,62.5646563 25.1764367,61.9840483 C25.8192527,61.3114244 26.7109007,60.9679844 27.5831086,60.7956164 C30.0040365,60.3135044 32.6517644,61.1468324 33.9270283,63.2230243 C35.1984043,65.3005122 34.6787083,68.59624 32.5701164,70.033504 C28.5265966,72.7900958 22.8410448,68.92024 24.0916848,64.1211522" id="Fill-20" fill="#CA4F6D"></path>
            </g>
            <g id="Group-5" transform="translate(659.999991, 55.439999)">
                <path d="M34.1351654,95.9709521 C36.4005733,97.946056 37.8624612,100.768744 37.6252932,103.868776 C37.5617892,104.744872 37.1755812,105.646888 36.4303813,106.10956 C35.9275333,106.423192 35.3223013,106.510024 34.7352134,106.587784 C31.5587175,107.014168 27.8456777,107.62588 24.6963978,106.777 C21.767438,105.987736 19.928414,102.802168 18.6998061,100.233496 C18.1775181,99.1435599 15.8019502,94.2952242 17.9934861,93.6109362 C22.3324939,92.2566163 20.107262,88.3465844 25.6398858,89.9056724 C28.7295496,90.7739923 31.7595975,93.8999442 34.1351654,95.9709521" id="Fill-53" fill="#AB2543"></path>
                <path d="M86.1289982,91.6463299 C84.6126782,93.6305058 83.8908063,96.1706657 84.5971262,98.6550976 C84.7967102,99.3601215 85.2593822,100.027561 85.9423742,100.281577 C86.4024542,100.452649 86.9104861,100.421545 87.4016701,100.387849 C90.059766,100.205113 93.1831258,100.089769 95.6053497,98.8767135 C97.8590936,97.7466016 98.8297976,94.8513377 99.4026296,92.5548258 C99.6462775,91.5789379 100.773797,87.2399301 98.8764536,87.0455301 C95.1219418,86.6606181 96.2844537,83.1108743 92.0374619,85.2972262 C89.667078,86.5193541 87.7204861,89.564954 86.1289982,91.6463299" id="Fill-55" fill="#AB2543"></path>
                <path d="M53.9777021,61.8054129 C52.7050301,62.0166609 51.3895902,62.2343888 50.1169182,61.9570449 L48.1184863,61.5202929 L49.7942143,63.2063888 C51.0500382,65.6713807 56.9455419,78.5160361 61.4776537,103.996691 C64.5919416,121.510834 64.3133016,134.470833 63.3477816,143.953665 C60.8724217,168.252368 52.1321982,195.951775 52.1321982,195.951775 L61.9273657,196.155247 L64.2964536,186.481903 C64.2964536,186.481903 74.1577171,160.344176 71.5488693,123.231922 C70.6416693,110.340611 60.3449498,67.2382446 60.3449498,67.2382446 C60.3449498,67.2382446 60.1920218,64.7188207 59.6489978,63.6120368 C58.9608218,62.2058768 57.7166619,61.4956689 56.05519,61.5501009 C55.386454,61.5708369 54.702166,61.6848849 53.9777021,61.8054129" id="Fill-57" fill="#4B7830"></path>
                <path d="M33.3497894,92.7563538 C33.0270854,92.9209458 32.9713574,93.2579058 32.9182214,93.5935698 C32.7912134,94.3530258 32.9350694,95.0865617 33.0737414,95.7941777 C33.0944774,95.9004497 33.1152134,96.0067217 33.1359494,96.1129937 C33.4353254,97.6811536 33.5415974,99.3581775 33.4521734,101.098705 C33.3770054,102.530785 33.5480774,103.995265 33.9485414,105.374209 C30.1499656,104.872657 26.2891817,104.608273 22.4620939,104.591425 C22.3273099,104.590129 22.1912299,104.588833 22.0538539,104.587537 C21.210158,104.579761 20.33795,104.571985 19.4994381,104.674369 C19.2389421,104.706769 19.0380621,104.863585 18.9641901,105.094273 C18.9032781,105.282193 18.7775661,105.674881 20.023022,106.821841 C20.457182,107.213233 21.124622,107.782177 21.90611,108.186529 C22.9727179,108.738625 24.1313418,109.163713 25.3482858,109.452721 C27.8962217,110.054065 30.4765576,110.003521 32.4387015,109.890769 C34.2038534,109.790977 36.0817573,109.911505 37.8663492,111.471889 L38.6569092,112.163953 C42.184621,115.251025 45.8328608,118.443073 49.0197247,121.93968 C50.5917726,123.665952 63.407916,140.345472 63.728028,140.847024 C64.420092,141.934368 65.3376599,142.622544 66.3135479,142.784544 L66.7023479,142.848048 L66.8436119,142.48128 C67.9737238,139.554912 67.3555318,135.993504 65.3039639,133.619232 C64.671516,132.886992 63.928908,132.271392 63.210924,131.676528 C62.96598,131.473056 62.7119641,131.263104 62.4696121,131.054448 C58.9341242,127.997184 41.557357,109.803937 40.9987811,109.080769 C40.0164131,107.802913 39.8271971,106.250305 39.6276131,104.606977 C39.5304131,103.806049 39.4306211,102.980497 39.2336291,102.170497 C38.3769732,98.6298256 37.3738692,95.9432177 35.0229253,93.4872978 C34.7507654,93.2047698 34.4539814,92.9805618 34.1390534,92.8224498 C34.0120454,92.7589458 33.6750854,92.5904658 33.3497894,92.7563538" id="Fill-59" fill="#4B7830"></path>
                <path d="M86.7313789,89.0910068 C86.500691,89.2724468 86.294627,89.5031348 86.119667,89.7791828 C84.617603,92.1612307 84.2469471,94.5173586 84.1341951,97.5448144 C84.1082751,98.2381744 84.1640031,98.9263503 84.2184351,99.5924943 C84.3285951,100.964958 84.4335711,102.262254 83.8438911,103.467534 C83.5095231,104.14923 72.3859556,121.842221 70.0142757,124.917629 C69.8535717,125.126285 69.6876837,125.331053 69.5217957,125.535821 C69.0319078,126.142349 68.5251718,126.769613 68.1298918,127.475933 C66.8559239,129.750413 66.9427559,132.751949 68.3463238,134.947373 L68.5238758,135.223421 L68.8297318,135.105485 C69.5982597,134.811293 70.2320037,134.099789 70.6130277,133.100573 C70.7892837,132.641789 70.9020357,132.167453 71.0121957,131.709965 C71.0925477,131.373005 71.1690117,131.054189 71.2675077,130.739261 C71.8740356,128.808221 78.4551233,116.930382 79.4491553,115.265022 C81.4683232,111.882462 83.9151711,108.670974 86.280371,105.567054 L86.7935869,104.893134 C87.9846109,103.324974 89.4944508,102.915438 90.9472668,102.705486 C93.3435706,102.358158 95.1009466,101.885118 96.6457785,101.171022 C97.5840824,100.738158 98.4562904,100.200318 99.2416664,99.5691663 C99.6797143,99.2140623 100.09573,98.7604624 100.545442,98.1435664 C100.773538,97.8377104 101.37877,97.0238224 101.123458,96.5650385 C101.024962,96.3874865 100.835746,96.2941745 100.615426,96.3097265 C99.9155863,96.3654545 99.2040824,96.5170865 98.5159064,96.6648305 L98.1906104,96.7335184 C95.0698426,97.3854064 91.9711067,98.2420624 88.9721628,99.2788623 C89.0680668,98.0891344 88.9643868,96.8695984 88.6663069,95.7135665 C88.3047229,94.3177746 88.1129149,92.9349426 88.0921789,91.6013587 C88.0921789,91.5171187 88.0908829,91.4315827 88.0908829,91.3434547 C88.0869949,90.7408147 88.0844029,90.1174388 87.8498269,89.5070228 C87.7539229,89.2517108 87.6528349,88.9873268 87.3638269,88.9056788 C87.0709309,88.8253268 86.8233949,89.0184308 86.7313789,89.0910068" id="Fill-61" fill="#4B7830"></path>
                <path d="M114.900456,139.105977 C117.848856,135.192057 120.671544,131.31961 123.557736,127.33441 C124.361256,126.225034 129.190151,119.38345 127.138583,118.20409 C126.4854,117.826954 114.222648,125.100106 111.578808,126.348154 C105.154536,129.373018 97.9721048,130.39945 91.3586171,132.983674 C80.0626817,137.401737 70.6900101,146.524281 65.9764583,157.699688 C65.7781703,158.171432 65.5837703,158.704088 65.7678023,159.182312 C66.6413063,161.461976 70.1845701,160.737512 72.030074,161.310344 C74.4198979,162.052952 76.2926178,163.036616 78.9170177,163.211576 C84.5312894,163.582232 90.2660892,162.012776 95.098873,159.17972 C103.264969,154.396185 109.205832,146.665545 114.900456,139.105977" id="Fill-63" fill="#4B7830"></path>
                <mask id="mask-6" fill="white">
                    <use xlink:href="#path-5"></use>
                </mask>
                <g id="Clip-66"></g>
                <path d="M66.0409991,3.96765715 C64.2253032,2.68332121 61.8808393,2.02754524 59.7515114,1.50525726 C57.7401195,1.01277729 55.5965356,0.954457288 53.5890317,1.60764126 C52.5159437,1.95885724 51.4998798,2.50576922 50.6211918,3.23541718 C49.9070959,3.83028115 49.4288719,4.63509712 48.9234319,5.40621708 C48.6486799,5.82741706 47.9423599,7.29967299 47.322872,7.186921 C46.904264,7.110457 46.404008,6.25898504 46.139624,5.96220106 C45.2453841,4.9539131 44.3122641,3.98320915 43.3013842,3.10063319 C41.9172562,1.89664924 39.9097523,0.937609289 38.0927604,0.631753303 C36.1098805,0.294793318 34.0064726,0.46975331 32.0313687,0.445129311 C30.0096088,0.416617313 28.2172409,0.756169297 26.3056409,1.47804126 C20.4658652,3.68124116 16.2590494,8.44663294 12.6302496,13.4738167 C10.7938177,16.0217526 9.62612172,19.6168564 9.59112972,22.7739123 C9.57557772,24.2669042 10.0071457,25.5629041 10.8560257,26.9561041 C11.2940736,27.680568 11.7891456,28.602024 12.3542016,29.195592 C13.1110656,29.9887439 12.1131456,30.1429679 11.4133056,30.3775439 C9.64556172,30.9698159 7.9944578,31.6942799 6.47036187,32.7803278 C4.58597795,34.1255757 2.72881004,35.8375917 1.61554609,37.9267436 C-0.951829789,42.7517514 0.206794158,47.8139271 0.626698138,52.7296549 C0.788698131,54.6192228 0.971434122,56.5735907 1.86697008,58.2169186 C3.77986599,61.7200065 7.8480098,63.8933984 11.4184896,65.1816223 C13.3326815,65.8736863 15.5319934,66.5333502 17.5952254,66.4905822 C19.0221213,66.4607743 20.2377692,65.5820863 21.5817212,65.2684543 C21.9899611,65.1738463 22.6405531,65.0494303 22.7001691,65.6792863 C22.7222011,65.9255263 22.6107451,66.1639903 22.5057691,66.3933823 C21.7916732,67.9446942 21.3678812,69.7798301 21.7009532,71.474998 C22.1377051,73.7093019 23.0928571,75.8399258 24.300729,77.7294937 C28.0332089,83.5731575 34.2060566,84.2885494 40.3802003,84.9728374 C42.1803442,85.1750134 44.0258481,85.3707094 45.798776,84.9274774 C49.3070479,84.0539734 51.5270958,81.0368856 53.9532077,78.5369017 C55.4565676,76.9855898 57.1517355,75.6014618 58.4127435,73.8181659 C59.0244554,72.9524379 59.5247114,71.985622 59.7463274,70.937158 C59.8513034,70.4394941 59.9407274,69.8524061 59.8681514,69.3469661 C59.7566954,68.5745502 59.6517194,68.3412702 60.4785674,68.6043582 C61.1861833,68.8311581 61.9158313,69.0048221 62.6299273,69.2069981 C63.8520552,69.5530301 65.0767752,69.9820061 66.3222311,70.2334301 C68.167735,70.6066781 70.7338149,70.6261181 72.5197028,69.9016541 C76.2171906,68.4008862 78.0225186,64.9664863 80.0365025,61.7329665 C82.8203103,57.2604707 85.1557022,54.1461828 84.2264703,48.8546151 C83.0367423,42.0622794 81.7498144,35.3697357 74.1746947,33.3777838 C73.8040387,33.2805838 73.3763588,33.1587598 73.2337988,32.7958798 C73.1093828,32.4770638 73.2636068,32.1154798 73.4165348,31.8070319 C74.5933027,29.401656 75.8167267,27.0040561 76.6228386,24.4392722 C77.0310786,23.1393843 77.3447106,21.7876563 77.3900706,20.4229684 C77.5442946,15.7923606 75.0093187,11.9380568 71.8418948,8.91448892 C70.8660069,7.98396096 69.6710949,7.29448899 68.744455,6.33026504 C67.973335,5.52674508 67.0492871,4.67916112 66.0409991,3.96765715" id="Fill-65" fill="#AB2543" mask="url(#mask-6)"></path>
                <path d="M23.2647067,46.391308 C22.5298747,43.5634361 23.2569307,41.1878682 23.5316827,40.3286203 C23.9321467,39.0740923 24.4622106,37.8415964 25.4432826,36.9719804 C26.2753145,36.2345565 27.7670105,35.8639005 28.1946905,34.7441565 C28.3411385,34.3631325 28.3294745,33.9445246 28.3139225,33.5414686 C28.1700665,29.3735328 28.5575704,26.3927329 31.7846103,23.511725 C32.4028023,22.9959171 33.9230102,21.7595331 36.1987861,21.4083171 C37.717698,21.1711492 38.982594,21.4251651 39.6383699,21.6001251 C41.3439059,22.0576131 42.6113938,23.449517 44.3739537,23.746301 C44.9908497,23.849981 45.6116337,23.589485 46.1909456,23.3354691 C48.5470735,22.2999651 50.1359694,21.1983651 52.7150093,21.7919331 C53.5146413,21.9733731 56.6859531,22.8170691 58.3189131,25.6734529 C59.828753,28.3147008 59.178161,31.2449567 59.051153,34.0935646 C58.924145,36.9201404 61.5057769,38.5284763 62.5697929,40.8509082 C63.6532488,43.2212921 63.4510728,46.242268 62.2963369,48.6022839 C61.3476649,50.5423958 59.459393,52.3866037 57.4829931,53.1486517 C56.2155052,53.6346516 54.8287852,53.0670037 53.5457453,53.4363637 C50.8072974,54.2217396 51.0470574,57.6302195 49.3480015,59.3746354 C47.5258256,61.2460593 44.1873297,61.4598993 41.8636018,60.8248593 C38.786898,59.9863474 36.0627061,58.6916434 35.0570101,55.4166516 C34.7757782,54.5003796 34.5813782,53.3054677 33.5575382,52.9516597 C32.4028023,52.5537877 30.8605623,52.6730197 29.6306584,52.4462197 C28.0871225,52.1598037 26.7224345,51.5649397 25.5249306,50.5268438 C23.9165947,49.1323479 23.4837307,47.2350039 23.2647067,46.391308" id="Fill-68" fill="#DC8596" mask="url(#mask-6)"></path>
                <path d="M33.2074886,37.0769564 C32.9729126,38.7306523 32.9262566,40.5955963 33.9889766,41.8345722 C34.3998086,42.3153882 34.9428325,42.6471642 35.5027045,42.9258041 C37.1110404,43.7293241 38.8865604,44.6443001 40.6996643,44.8905401 C41.7520162,45.031804 42.9002722,44.8581401 43.7491521,44.1777401 C45.0218241,43.1577881 45.3056481,41.3317242 45.4145121,39.6935803 C45.5052321,38.3470364 45.5272641,36.9253244 44.9025921,35.7524445 C44.5811841,35.1472125 44.1055521,34.6469565 43.5845601,34.2140925 C39.7263683,30.9922367 34.0343366,31.2553247 33.2074886,37.0769564" id="Fill-70" fill="#F5A900" mask="url(#mask-6)"></path>
                <path d="M49.1429743,35.0361453 C49.1131663,35.0439213 49.0859503,35.0529933 49.0561423,35.0633613 C47.6564624,35.5169613 46.8179504,37.1680652 46.4667344,38.5146091 C46.3241744,39.0602251 46.2541904,39.6200971 46.3786064,40.1683051 C46.6857584,41.542065 47.8301263,42.9119369 48.9356143,43.6856489 C49.9426063,44.3906729 51.2697102,44.7043049 52.4244461,44.2481129 C53.1644621,43.9578089 53.7761741,43.3746089 54.2194061,42.699393 C54.2738381,42.620337 54.324382,42.538689 54.37363,42.455745 C55.791454,40.0853611 55.195294,37.1499212 52.8819341,35.7359853 C51.8788302,35.1203853 50.3352942,34.6927053 49.1429743,35.0361453" id="Fill-72" fill="#F5A900" mask="url(#mask-6)"></path>
                <path d="M42.0922162,51.0159542 C42.7466962,51.1377782 43.4219122,51.0963062 44.0867601,51.0237302 C45.2440881,50.9019062 46.41956,50.6867702 47.444696,50.1126422 C48.4711279,49.5346262 49.3355599,48.5405943 49.5221839,47.3586423 C49.7165839,46.1352184 49.1865199,44.9377144 48.6681199,43.8322265 C47.318984,40.9421466 42.6456082,40.6375866 40.5305363,42.8239385 C38.0759124,45.3615064 38.0486964,50.2694582 42.0922162,51.0159542" id="Fill-74" fill="#F8C34D" mask="url(#mask-6)"></path>
            </g>
        </g>
    </g>
</svg>