<?xml version="1.0" encoding="UTF-8"?>
<svg width="50px" height="50px" viewBox="0 0 50 50" version="1.1" xmlns="http://www.w3.org/2000/svg" xmlns:xlink="http://www.w3.org/1999/xlink">
    <!-- Generator: Sketch 64 (93537) - https://sketch.com -->
    <title>Artboard</title>
    <desc>Created with Sketch.</desc>
    <g id="Artboard" stroke="none" stroke-width="1" fill="none" fill-rule="evenodd">
        <g id="Group-2" transform="translate(-1.875000, 0.000000)">
            <circle id="Oval" fill="#FFFFFF" cx="26.875" cy="25" r="25"></circle>
            <g id="Group-3" transform="translate(0.000000, 6.875000)" fill="#000000">
                <g id="Icon-/-Arrow_Small" transform="translate(17.968750, 18.593750) rotate(-90.000000) translate(-17.968750, -18.593750) translate(0.000000, 0.625000)">
                    <path d="M18.7390751,14.9976484 L22.7076813,18.9662547 C22.9030866,19.1616599 22.9200784,19.4697044 22.7719328,19.6852554 L22.7086634,19.7613508 C22.4893748,19.9806393 22.1306432,19.9774447 21.9135673,19.7603687 L18.3418656,16.1884412 L14.6687156,19.8633238 C14.4757592,20.0562803 14.1708774,20.080244 13.9514947,19.9291737 L13.8736195,19.8643059 L13.8103501,19.7882105 C13.6622045,19.5726595 13.6791963,19.264615 13.8746016,19.0692098 L13.8746016,19.0692098 L17.8432078,15.1006035 C17.8576169,15.0861945 17.8726501,15.0727278 17.8882253,15.0602059 C17.9053887,15.0384754 17.9237496,15.0168958 17.943979,14.9966664 C18.1632675,14.7773779 18.5219991,14.7805725 18.7390751,14.9976484 Z" id="Combined-Shape"></path>
                </g>
                <g id="Icon-/-Arrow_Small" transform="translate(35.781250, 17.968750) rotate(-270.000000) translate(-35.781250, -17.968750) translate(17.812500, 0.000000)">
                    <path d="M18.7390751,14.9976484 L22.7076813,18.9662547 C22.9030866,19.1616599 22.9200784,19.4697044 22.7719328,19.6852554 L22.7086634,19.7613508 C22.4893748,19.9806393 22.1306432,19.9774447 21.9135673,19.7603687 L18.3418656,16.1884412 L14.6687156,19.8633238 C14.4757592,20.0562803 14.1708774,20.080244 13.9514947,19.9291737 L13.8736195,19.8643059 L13.8103501,19.7882105 C13.6622045,19.5726595 13.6791963,19.264615 13.8746016,19.0692098 L13.8746016,19.0692098 L17.8432078,15.1006035 C17.8576169,15.0861945 17.8726501,15.0727278 17.8882253,15.0602059 C17.9053887,15.0384754 17.9237496,15.0168958 17.943979,14.9966664 C18.1632675,14.7773779 18.5219991,14.7805725 18.7390751,14.9976484 Z" id="Combined-Shape"></path>
                </g>
            </g>
        </g>
    </g>
</svg>