<?xml version="1.0" encoding="UTF-8"?>
<svg width="75px" height="75px" viewBox="0 0 75 75" version="1.1" xmlns="http://www.w3.org/2000/svg" xmlns:xlink="http://www.w3.org/1999/xlink">
    <!-- Generator: Sketch 64 (93537) - https://sketch.com -->
    <title>Artboard</title>
    <desc>Created with Sketch.</desc>
    <g id="Artboard" stroke="none" stroke-width="1" fill="none" fill-rule="evenodd">
        <g id="Group-2" transform="translate(-2.812500, 0.000000)">
            <circle id="Oval" fill="#FFFFFF" cx="40.3125" cy="37.5" r="37.5"></circle>
            <g id="Group-3" transform="translate(0.000000, 10.312500)" fill="#000000">
                <g id="Icon-/-Arrow_Small" transform="translate(26.953125, 27.890625) rotate(-90.000000) translate(-26.953125, -27.890625) translate(0.000000, 0.937500)">
                    <path d="M28.1086126,22.4964727 L34.061522,28.449382 C34.3637895,28.7516495 34.3914596,29.2235904 34.1388438,29.5552765 L34.062995,29.6420262 C33.7340622,29.970959 33.1959649,29.9661671 32.8703509,29.6405531 L27.5142984,24.2836618 L22.0030734,29.7949858 C21.704594,30.0934652 21.2275694,30.122365 20.8967761,29.8717469 L20.8104293,29.7964588 L20.7345806,29.7097092 C20.4819648,29.378023 20.5096349,28.9060822 20.8119024,28.6038147 L20.8119024,28.6038147 L26.7648117,22.6509053 C26.7865824,22.6291346 26.809303,22.6087981 26.8328474,22.5898996 C26.8582134,22.5572207 26.8856951,22.525273 26.9159685,22.4949996 C27.2449013,22.1660668 27.7829987,22.1708587 28.1086126,22.4964727 Z" id="Combined-Shape"></path>
                </g>
                <g id="Icon-/-Arrow_Small" transform="translate(53.671875, 26.953125) rotate(-270.000000) translate(-53.671875, -26.953125) translate(26.718750, 0.000000)">
                    <path d="M28.1086126,22.4964727 L34.061522,28.449382 C34.3637895,28.7516495 34.3914596,29.2235904 34.1388438,29.5552765 L34.062995,29.6420262 C33.7340622,29.970959 33.1959649,29.9661671 32.8703509,29.6405531 L27.5142984,24.2836618 L22.0030734,29.7949858 C21.704594,30.0934652 21.2275694,30.122365 20.8967761,29.8717469 L20.8104293,29.7964588 L20.7345806,29.7097092 C20.4819648,29.378023 20.5096349,28.9060822 20.8119024,28.6038147 L20.8119024,28.6038147 L26.7648117,22.6509053 C26.7865824,22.6291346 26.809303,22.6087981 26.8328474,22.5898996 C26.8582134,22.5572207 26.8856951,22.525273 26.9159685,22.4949996 C27.2449013,22.1660668 27.7829987,22.1708587 28.1086126,22.4964727 Z" id="Combined-Shape"></path>
                </g>
            </g>
        </g>
    </g>
</svg>