<?xml version="1.0" encoding="UTF-8"?>
<svg width="300px" height="300px" viewBox="0 0 300 300" version="1.1" xmlns="http://www.w3.org/2000/svg" xmlns:xlink="http://www.w3.org/1999/xlink">
    <!-- Generator: Sketch 64 (93537) - https://sketch.com -->
    <title>Group 2</title>
    <desc>Created with Sketch.</desc>
    <defs>
        <linearGradient x1="83.3367752%" y1="16.2093207%" x2="17.5757674%" y2="86.7335563%" id="linearGradient-1">
            <stop stop-color="#FA8BFF" offset="0%"></stop>
            <stop stop-color="#2CD1FF" offset="52.0408163%"></stop>
            <stop stop-color="#2CFF88" offset="100%"></stop>
        </linearGradient>
        <ellipse id="path-2" cx="17.5" cy="28.5" rx="17.5" ry="28.5"></ellipse>
        <ellipse id="path-4" cx="17.5" cy="28.5" rx="17.5" ry="28.5"></ellipse>
    </defs>
    <g id="Page-1" stroke="none" stroke-width="1" fill="none" fill-rule="evenodd">
        <g id="Group-2">
            <path d="M0,150 C0,67.1572875 67.1624115,0 150,0 L150,0 C232.842712,0 300,67.1624115 300,150 L300,150 C300,232.842712 232.837589,300 150,300 L150,300 C67.1572875,300 0,232.837589 0,150 L0,150 Z" id="image2" fill="url(#linearGradient-1)"></path>
            <g id="Group" transform="translate(88.000000, 93.000000)">
                <g id="Oval">
                    <mask id="mask-3" fill="white">
                        <use xlink:href="#path-2"></use>
                    </mask>
                    <use id="Mask" fill="#FFFFFF" xlink:href="#path-2"></use>
                    <ellipse fill="#000000" mask="url(#mask-3)" cx="18" cy="46" rx="10" ry="15"></ellipse>
                </g>
                <g id="Oval" transform="translate(89.000000, 0.000000)">
                    <mask id="mask-5" fill="white">
                        <use xlink:href="#path-4"></use>
                    </mask>
                    <use id="Mask" fill="#FFFFFF" xlink:href="#path-4"></use>
                    <ellipse fill="#000000" mask="url(#mask-5)" cx="18" cy="46" rx="10" ry="15"></ellipse>
                </g>
            </g>
        </g>
    </g>
</svg>