<?xml version="1.0" encoding="UTF-8"?>
<svg width="86px" height="10px" viewBox="0 0 86 10" version="1.1" xmlns="http://www.w3.org/2000/svg" xmlns:xlink="http://www.w3.org/1999/xlink">
    <!-- Generator: Sketch 62 (91390) - https://sketch.com -->
    <title>Logo</title>
    <desc>Created with Sketch.</desc>
    <g id="Case-Study-Design" stroke="none" stroke-width="1" fill="none" fill-rule="evenodd">
        <g id="Nav-/-Year" transform="translate(-108.000000, -883.000000)" fill="#000000">
            <g id="Nav">
                <g id="Logo" transform="translate(108.000000, 883.000000)">
                    <path d="M31.4527348,1.58823529 C29.728096,0.588235294 27.448065,0.0294117647 25.0218782,0.0294117647 C22.5664603,0.0294117647 20.2864293,0.588235294 18.5910217,1.58823529 C17.3340815,2.35294118 16.6033024,3.52941176 16.6033024,4.85294118 C16.6033024,6.17647059 17.3340815,7.35294118 18.5910217,8.11764706 C20.3156605,9.11764706 22.5956914,9.67647059 25.0218782,9.67647059 C27.4772962,9.67647059 29.7573271,9.11764706 31.4527348,8.11764706 C32.7096749,7.35294118 33.4404541,6.17647059 33.4404541,4.85294118 C33.4404541,3.52941176 32.7096749,2.35294118 31.4527348,1.58823529 Z M24.9926471,9.23529412 C23.4433953,9.23529412 20.8418215,8.32352941 20.8418215,4.85294118 C20.8418215,1.82352941 22.9172343,0.470588235 24.9926471,0.470588235 C27.7696078,0.470588235 29.4065531,2.11764706 29.4065531,4.85294118 C29.4357843,7.79411765 27.974226,9.23529412 24.9926471,9.23529412 Z" id="Shape"></path>
                    <polygon id="Shape" points="85.501161 0.617647059 85.501161 0.176470588 78.4856811 0.176470588 78.4856811 0.617647059 79.9764706 0.617647059 79.9764706 4.41176471 74.1010062 4.41176471 74.1010062 0.617647059 75.6210268 0.617647059 75.6210268 0.235294118 75.6210268 0.176470588 68.5763158 0.176470588 68.5763158 0.617647059 70.0963364 0.617647059 70.0963364 9.11764706 68.5763158 9.11764706 68.5763158 9.55882353 75.6210268 9.55882353 75.6210268 9.11764706 74.1010062 9.11764706 74.1010062 4.85294118 79.9764706 4.85294118 79.9764706 9.11764706 78.4856811 9.11764706 78.4856811 9.55882353 85.4426987 9.55882353 85.501161 9.55882353 85.501161 9.11764706 83.9811404 9.11764706 83.9811404 0.617647059"></polygon>
                    <path d="M42.0051858,0.0294117647 L41.7713364,0.0294117647 L34.4050826,9.11764706 L32.7096749,9.11764706 L32.7096749,9.55882353 L36.948194,9.55882353 L36.948194,9.11764706 L34.9604747,9.11764706 L36.7435759,6.94117647 L43.3498194,6.94117647 L45.3375387,9.14705882 L43.4082817,9.14705882 L43.4082817,9.58823529 L52.2068627,9.58823529 L52.2068627,9.11764706 L50.2483746,9.11764706 L42.0051858,0.0294117647 Z M37.0943498,6.47058824 L39.8128483,3.08823529 L42.9405831,6.47058824 L37.0943498,6.47058824 Z" id="Shape"></path>
                    <path d="M12.1017028,1.08823529 C11.9847781,1.02941176 11.6340041,0.794117647 11.0493808,0.558823529 C10.4062951,0.323529412 9.38320433,4.84460956e-15 8.06780186,4.84460956e-15 C5.96315789,4.84460956e-15 4.00466976,0.411764706 2.57234262,1.14705882 C0.876934985,2 -6.33956825e-14,3.29411765 -6.33956825e-14,4.82352941 C-6.33956825e-14,8 2.95234778,9.64705882 8.56473168,9.64705882 C9.93859649,9.64705882 11.1370743,9.29411765 12.130934,8.58823529 L13.8263416,9.5 L14.1478844,9.5 L14.1478844,5.85294118 L13.8263416,5.85294118 L13.7971104,5.88235294 L13.7971104,5.91176471 C13.7971104,5.94117647 13.5047988,6.76470588 12.7447884,7.58823529 C12.0432405,8.35294118 10.7570691,9.26470588 8.65242518,9.26470588 C7.24932921,9.26470588 6.10931373,8.73529412 5.34930341,7.76470588 C4.76468008,7 4.41390609,5.94117647 4.41390609,4.88235294 C4.41390609,2.02941176 6.60624355,0.5 8.65242518,0.5 C10.0555212,0.5 11.3124613,0.941176471 12.3063209,1.79411765 C13.1540248,2.5 13.6217234,3.32352941 13.7971104,3.88235294 L13.7971104,3.91176471 L14.1478844,3.91176471 L14.1478844,0.176470588 L13.8263416,0.176470588 L12.1017028,1.08823529 Z" id="Shape"></path>
                    <path d="M63.9870227,1.08823529 C63.870098,1.02941176 63.519324,0.794117647 62.9347007,0.558823529 C62.2916151,0.323529412 61.2685243,4.84460956e-15 59.9531218,4.84460956e-15 C57.8484778,4.84460956e-15 55.8899897,0.411764706 54.4576625,1.14705882 C52.7622549,2 51.8853199,3.29411765 51.8853199,4.82352941 C51.8853199,8 54.8376677,9.64705882 60.4500516,9.64705882 C61.8239164,9.64705882 63.0223942,9.29411765 64.0162539,8.58823529 L65.7116615,9.5 L66.0332043,9.5 L66.0332043,5.85294118 L65.7116615,5.85294118 L65.6824303,5.88235294 L65.6824303,5.91176471 C65.6824303,5.94117647 65.3901187,6.76470588 64.6301084,7.58823529 C63.9285604,8.35294118 62.6423891,9.26470588 60.5377451,9.26470588 C59.1346491,9.26470588 57.9946336,8.73529412 57.2346233,7.76470588 C56.65,7 56.299226,5.94117647 56.299226,4.88235294 C56.299226,2.02941176 58.4915635,0.5 60.5377451,0.5 C61.9408411,0.5 63.1977812,0.941176471 64.1916409,1.79411765 C65.0393447,2.5 65.5070433,3.32352941 65.6824303,3.88235294 L65.6824303,3.91176471 L66.0332043,3.91176471 L66.0332043,0.176470588 L65.7116615,0.176470588 L63.9870227,1.08823529 Z" id="Shape"></path>
                </g>
            </g>
        </g>
    </g>
</svg>