<?xml version="1.0" encoding="UTF-8"?>
<svg width="18px" height="11px" viewBox="0 0 18 11" version="1.1" xmlns="http://www.w3.org/2000/svg" xmlns:xlink="http://www.w3.org/1999/xlink">
    <!-- Generator: Sketch 62 (91390) - https://sketch.com -->
    <title>Combined Shape</title>
    <desc>Created with Sketch.</desc>
    <g id="Symbols" stroke="none" stroke-width="1" fill="none" fill-rule="evenodd">
        <g id="Components/nav" transform="translate(-20.000000, -86.000000)" fill="#000000">
            <path d="M37.4997903,96 C37.7453531,96 37.9495872,96.1832562 37.991941,96.4122514 L38,96.5 C38,96.7761424 37.7724135,97 37.4997903,97 L20.5002097,97 C20.2239515,97 20,96.7680664 20,96.5 C20,96.2238576 20.2275865,96 20.5002097,96 L37.4997903,96 Z M37.4997903,86 C37.7453531,86 37.9495872,86.1832562 37.991941,86.4122514 L38,86.5 C38,86.7761424 37.7724135,87 37.4997903,87 L20.5002097,87 C20.2239515,87 20,86.7680664 20,86.5 C20,86.2238576 20.2275865,86 20.5002097,86 L37.4997903,86 Z" id="Combined-Shape"></path>
        </g>
    </g>
</svg>